<svg xmlns="http://www.w3.org/2000/svg" width="171" height="221" fill="none" xmlns:v="https://vecta.io/nano"><rect width="171" height="221" rx="5.664" fill="#fff"/><path d="M19.118 20.993v1.784h2.396v1.132h-2.396v1.886h2.701v1.162H17.69v-7.126h4.129v1.162h-2.701zm11.114.234c.693 0 1.25.214 1.672.642.428.421.642 1.013.642 1.774v3.313h-1.427v-3.119c0-.442-.112-.778-.336-1.009-.224-.238-.53-.357-.918-.357s-.697.119-.928.357c-.224.231-.336.567-.336 1.009v3.119h-1.427v-3.119c0-.442-.112-.778-.336-1.009-.224-.238-.53-.357-.918-.357-.394 0-.707.119-.938.357-.224.231-.336.567-.336 1.009v3.119h-1.427v-5.648h1.427v.683a1.91 1.91 0 0 1 .703-.561c.292-.136.612-.204.958-.204.442 0 .836.095 1.183.285a1.93 1.93 0 0 1 .805.795c.184-.326.449-.588.795-.785.353-.197.734-.296 1.142-.296zm4.494-.591c-.252 0-.462-.078-.632-.234-.163-.163-.245-.364-.245-.601s.082-.435.245-.591c.17-.163.381-.245.632-.245s.459.082.622.245a.77.77 0 0 1 .255.591.8.8 0 0 1-.255.601c-.163.156-.37.234-.622.234zm.703.673v5.648h-1.427v-5.648h1.427zm3.673 5.74c-.462 0-.877-.082-1.244-.245-.367-.17-.659-.398-.877-.683a1.74 1.74 0 0 1-.347-.948h1.437c.027.218.133.398.316.54.19.143.425.214.703.214.272 0 .483-.054.632-.163a.49.49 0 0 0 .234-.418c0-.184-.095-.319-.285-.408-.183-.095-.479-.197-.887-.306-.421-.102-.768-.207-1.04-.316a1.85 1.85 0 0 1-.693-.5c-.19-.224-.285-.527-.285-.907 0-.313.088-.598.265-.856.184-.258.442-.462.775-.612.34-.149.737-.224 1.193-.224.673 0 1.21.17 1.611.51.401.333.622.785.663 1.356h-1.366c-.02-.224-.115-.401-.285-.53-.163-.136-.384-.204-.663-.204-.258 0-.459.048-.601.143-.136.095-.204.228-.204.398 0 .19.095.337.285.438.19.095.486.194.887.296.408.102.744.207 1.009.316a1.72 1.72 0 0 1 .683.51c.197.224.299.523.306.897 0 .326-.092.619-.275.877-.177.258-.435.462-.775.612-.333.143-.724.214-1.172.214zm5.657 0c-.462 0-.877-.082-1.244-.245-.367-.17-.659-.398-.877-.683a1.74 1.74 0 0 1-.347-.948h1.438c.027.218.133.398.316.54.19.143.425.214.703.214.272 0 .483-.054.632-.163a.49.49 0 0 0 .235-.418c0-.184-.095-.319-.285-.408-.184-.095-.479-.197-.887-.306-.421-.102-.768-.207-1.04-.316a1.85 1.85 0 0 1-.693-.5c-.19-.224-.285-.527-.285-.907 0-.313.088-.598.265-.856.184-.258.442-.462.775-.612.34-.149.737-.224 1.193-.224.673 0 1.21.17 1.611.51.401.333.622.785.663 1.356h-1.366c-.02-.224-.116-.401-.285-.53-.163-.136-.384-.204-.663-.204-.258 0-.459.048-.601.143-.136.095-.204.228-.204.398 0 .19.095.337.285.438.19.095.486.194.887.296.408.102.744.207 1.009.316s.493.279.683.51c.197.224.299.523.306.897 0 .326-.092.619-.275.877-.177.258-.435.462-.775.612-.333.143-.724.214-1.172.214zm4.22-6.412c-.252 0-.462-.078-.632-.234-.163-.163-.245-.364-.245-.601s.082-.435.245-.591c.17-.163.381-.245.632-.245s.459.082.622.245a.77.77 0 0 1 .255.591.8.8 0 0 1-.255.601c-.163.156-.37.234-.622.234zm.703.673v5.648h-1.427v-5.648h1.427zm4.02 5.74c-.544 0-1.033-.119-1.468-.357-.435-.245-.778-.588-1.03-1.03-.245-.442-.367-.951-.367-1.529s.126-1.087.377-1.529c.258-.442.608-.782 1.05-1.02a3 3 0 0 1 1.478-.367 3 3 0 0 1 1.478.367c.442.238.788.578 1.04 1.02.258.442.387.951.387 1.529s-.133 1.087-.398 1.529a2.71 2.71 0 0 1-1.06 1.03c-.442.238-.938.357-1.488.357zm0-1.244a1.49 1.49 0 0 0 .724-.184c.231-.129.415-.319.55-.571s.204-.557.204-.918c0-.537-.143-.948-.428-1.234-.279-.292-.622-.438-1.03-.438s-.751.146-1.03.438c-.272.285-.408.697-.408 1.234s.133.951.398 1.244a1.35 1.35 0 0 0 1.02.428zm7.225-4.577c.673 0 1.217.214 1.631.642.415.421.622 1.013.622 1.774v3.313h-1.427v-3.119c0-.448-.112-.792-.336-1.03-.224-.245-.53-.367-.917-.367-.394 0-.707.122-.938.367-.224.238-.336.581-.336 1.03v3.119h-1.427v-5.648h1.427v.703c.19-.245.432-.435.724-.571.299-.143.625-.214.979-.214zm5.873 5.821c-.462 0-.877-.082-1.244-.245-.367-.17-.659-.398-.877-.683a1.74 1.74 0 0 1-.347-.948h1.437c.027.218.132.398.316.54.19.143.425.214.703.214.272 0 .483-.054.632-.163a.49.49 0 0 0 .234-.418c0-.184-.095-.319-.285-.408-.184-.095-.479-.197-.887-.306-.421-.102-.768-.207-1.04-.316a1.85 1.85 0 0 1-.693-.5c-.19-.224-.285-.527-.285-.907 0-.313.088-.598.265-.856.183-.258.442-.462.775-.612.34-.149.737-.224 1.193-.224.673 0 1.21.17 1.611.51.401.333.622.785.663 1.356h-1.366c-.02-.224-.115-.401-.285-.53-.163-.136-.384-.204-.663-.204-.258 0-.459.048-.601.143-.136.095-.204.228-.204.398 0 .19.095.337.285.438.19.095.486.194.887.296.408.102.744.207 1.009.316a1.72 1.72 0 0 1 .683.51c.197.224.299.523.306.897 0 .326-.092.619-.275.877-.177.258-.435.462-.775.612-.333.143-.724.214-1.172.214zm7.454-4.914a2.05 2.05 0 0 1 .754-.663 2.37 2.37 0 0 1 1.111-.255c.483 0 .918.119 1.305.357.394.238.703.578.928 1.02.231.435.347.941.347 1.519s-.115 1.091-.347 1.539c-.224.442-.534.785-.928 1.03-.387.245-.822.367-1.305.367-.421 0-.792-.082-1.111-.245a2.21 2.21 0 0 1-.754-.652v.805h-1.427v-7.544h1.427v2.722zm2.987 1.978c0-.34-.071-.632-.214-.877-.136-.251-.319-.442-.55-.571-.224-.129-.469-.194-.734-.194-.258 0-.503.068-.734.204-.224.129-.408.319-.55.571-.136.252-.204.547-.204.887s.068.635.204.887c.143.252.326.445.55.581.231.129.476.194.734.194a1.39 1.39 0 0 0 .734-.204c.231-.136.415-.33.55-.581.143-.252.214-.55.214-.897zm8-2.803l-3.497 8.319h-1.519l1.223-2.814-2.263-5.505h1.601l1.458 3.945 1.478-3.945h1.519zm3.035 2.824c0-.584.119-1.094.357-1.529.238-.442.567-.782.989-1.02a2.83 2.83 0 0 1 1.448-.367c.7 0 1.278.177 1.733.53.462.347.771.836.928 1.468h-1.539a1.09 1.09 0 0 0-.418-.571c-.19-.143-.428-.214-.714-.214a1.17 1.17 0 0 0-.969.448c-.238.292-.357.71-.357 1.254 0 .537.119.955.357 1.254.238.292.561.438.969.438.578 0 .955-.258 1.132-.775h1.539c-.156.612-.466 1.098-.928 1.458s-1.04.54-1.733.54c-.544 0-1.026-.119-1.448-.357-.421-.245-.751-.585-.989-1.02-.238-.442-.357-.955-.357-1.539zm6.235-.02c0-.571.112-1.077.336-1.519a2.55 2.55 0 0 1 .928-1.02c.394-.238.833-.357 1.315-.357.421 0 .788.085 1.101.255.319.17.574.384.765.642v-.805h1.438v5.648h-1.438v-.826c-.183.265-.438.486-.765.663-.319.17-.69.255-1.111.255-.476 0-.911-.122-1.305-.367-.387-.245-.697-.588-.928-1.03-.224-.448-.336-.962-.336-1.539zm4.445.02c0-.347-.068-.642-.204-.887-.136-.251-.319-.442-.55-.571-.231-.136-.479-.204-.744-.204s-.51.064-.734.194-.408.319-.55.571c-.136.245-.204.537-.204.877s.068.639.204.897c.143.252.326.445.55.581.231.136.476.204.734.204a1.5 1.5 0 0 0 .744-.194c.231-.136.415-.326.55-.571.136-.252.204-.551.204-.897zm4.595-1.651v2.732c0 .19.044.33.133.418.095.082.251.122.469.122h.662v1.203h-.897c-1.203 0-1.804-.584-1.804-1.753v-2.722h-.673v-1.172h.673v-1.397h1.437v1.397h1.264v1.172h-1.264zm7.643 1.529c0 .204-.014.387-.041.55h-4.129c.034.408.177.727.429.958s.56.347.927.347c.53 0 .908-.228 1.132-.683h1.539c-.163.544-.475.992-.938 1.346-.462.347-1.029.52-1.702.52-.544 0-1.033-.119-1.468-.357a2.62 2.62 0 0 1-1.009-1.03c-.238-.442-.357-.951-.357-1.529 0-.584.119-1.098.357-1.539s.571-.782.999-1.02.921-.357 1.478-.357c.537 0 1.016.116 1.437.347a2.39 2.39 0 0 1 .989.989c.238.421.357.907.357 1.458zm-1.478-.408c-.007-.367-.14-.659-.398-.877-.258-.224-.574-.336-.948-.336-.353 0-.652.109-.897.326-.238.211-.384.506-.438.887h2.681zm4.834-2.386a2.33 2.33 0 0 1 1.111.255c.32.163.571.377.754.642v-.805h1.438v5.688c0 .523-.105.989-.316 1.397a2.31 2.31 0 0 1-.948.979c-.422.245-.931.367-1.529.367-.802 0-1.462-.187-1.978-.561-.51-.374-.799-.883-.867-1.529h1.417a1.04 1.04 0 0 0 .48.612 1.68 1.68 0 0 0 .907.235c.414 0 .751-.126 1.009-.377.258-.245.387-.618.387-1.121v-.877c-.183.265-.438.486-.764.663a2.24 2.24 0 0 1-1.101.265c-.476 0-.911-.122-1.305-.367a2.6 2.6 0 0 1-.938-1.03c-.224-.448-.336-.962-.336-1.539 0-.571.112-1.077.336-1.519.231-.442.54-.782.928-1.02.394-.238.832-.357 1.315-.357zm1.865 2.916c0-.347-.067-.642-.203-.887-.136-.251-.32-.442-.551-.571a1.44 1.44 0 0 0-.744-.204c-.265 0-.51.064-.734.194a1.49 1.49 0 0 0-.551.571c-.136.245-.204.537-.204.877s.068.639.204.897a1.57 1.57 0 0 0 .551.581c.231.136.476.204.734.204a1.5 1.5 0 0 0 .744-.194c.231-.136.415-.326.551-.571.136-.252.203-.551.203-.897zm5.442 2.916c-.544 0-1.033-.119-1.468-.357-.435-.245-.779-.588-1.03-1.03-.245-.442-.367-.951-.367-1.529s.126-1.087.377-1.529c.258-.442.608-.782 1.05-1.02.442-.245.935-.367 1.478-.367s1.037.122 1.479.367c.441.238.788.578 1.039 1.02.259.442.388.951.388 1.529s-.133 1.087-.398 1.529c-.258.442-.611.785-1.06 1.03-.442.238-.938.357-1.488.357zm0-1.244c.258 0 .499-.061.723-.184a1.39 1.39 0 0 0 .551-.571c.136-.252.204-.557.204-.918 0-.537-.143-.948-.428-1.234-.279-.292-.622-.438-1.03-.438s-.751.146-1.03.438c-.271.285-.407.697-.407 1.234s.132.951.397 1.244a1.35 1.35 0 0 0 1.02.428zm5.522-3.619a2.01 2.01 0 0 1 .714-.703c.299-.17.638-.255 1.019-.255v1.499h-.377c-.449 0-.789.105-1.02.316-.224.211-.336.578-.336 1.101v2.814h-1.427v-5.648h1.427v.877zm8.199-.877l-3.496 8.319h-1.519l1.223-2.814-2.263-5.505h1.6l1.458 3.945 1.478-3.945h1.519z" fill="#000"/><rect x="16.987" y="132.261" width="5.662" height="5.652" rx="2.826" fill="#ffc542"/><path d="M33.489 132.778l-2.085 5.526h-.833l-2.085-5.526h.769l1.736 4.765 1.737-4.765h.761zm4.756 3.187a4.22 4.22 0 0 1-.024.436h-3.473c.026.428.172.764.436 1.007.27.238.595.357.975.357.312 0 .571-.071.777-.214a1.17 1.17 0 0 0 .444-.587h.777c-.116.418-.349.759-.698 1.023s-.782.389-1.3.389a2.22 2.22 0 0 1-1.11-.278 1.98 1.98 0 0 1-.761-.785 2.47 2.47 0 0 1-.277-1.189c0-.45.09-.843.27-1.182s.431-.597.753-.777a2.25 2.25 0 0 1 1.126-.277c.412 0 .777.09 1.094.269a1.83 1.83 0 0 1 .729.746c.175.312.262.666.262 1.062zm-.745-.151c0-.274-.061-.51-.182-.705-.122-.201-.288-.352-.499-.452-.206-.106-.436-.159-.69-.159-.365 0-.677.117-.936.349-.254.233-.399.555-.436.967H37.5zm3.854-1.934c.328 0 .624.071.888.214.264.137.47.346.618.626s.23.621.23 1.023v2.561h-.714v-2.458c0-.433-.108-.764-.325-.991-.217-.233-.513-.349-.888-.349-.381 0-.684.119-.912.357-.222.238-.333.584-.333 1.039v2.402h-.722v-5.867h.722v2.141a1.43 1.43 0 0 1 .587-.516c.254-.121.536-.182.848-.182zm3.288-.627c-.137 0-.254-.047-.349-.142s-.143-.212-.143-.349.048-.254.143-.349.211-.143.349-.143a.44.44 0 0 1 .333.143c.095.095.143.211.143.349a.47.47 0 0 1-.143.349.44.44 0 0 1-.333.142zm.349.706v4.345h-.722v-4.345h.722zm.96 2.165c0-.45.09-.841.27-1.174s.428-.6.745-.785c.322-.185.69-.277 1.102-.277.534 0 .973.129 1.316.388.349.259.579.619.69 1.079h-.777c-.074-.265-.219-.474-.436-.627-.211-.153-.476-.23-.793-.23-.412 0-.745.143-.999.428s-.381.68-.381 1.198.127.927.381 1.213a1.27 1.27 0 0 0 .999.428c.317 0 .581-.074.793-.222a1.12 1.12 0 0 0 .436-.634h.777c-.116.444-.349.801-.698 1.07s-.785.397-1.308.397c-.412 0-.78-.093-1.102-.278a1.94 1.94 0 0 1-.745-.785c-.179-.338-.27-.735-.27-1.189zm5.807-3.687v5.867h-.722v-5.867h.722zm5.194 3.528a4.22 4.22 0 0 1-.024.436h-3.473c.026.428.172.764.436 1.007.27.238.595.357.975.357.312 0 .571-.071.777-.214a1.17 1.17 0 0 0 .444-.587h.777c-.116.418-.349.759-.698 1.023s-.782.389-1.3.389a2.22 2.22 0 0 1-1.11-.278 1.98 1.98 0 0 1-.761-.785 2.47 2.47 0 0 1-.277-1.189c0-.45.09-.843.27-1.182s.431-.597.753-.777a2.25 2.25 0 0 1 1.126-.277c.412 0 .777.09 1.094.269a1.83 1.83 0 0 1 .73.746c.174.312.262.666.262 1.062zm-.745-.151c0-.274-.061-.51-.182-.705a1.14 1.14 0 0 0-.499-.452c-.206-.106-.436-.159-.69-.159-.365 0-.677.117-.936.349-.254.233-.399.555-.436.967h2.743zm3.236 2.562c-.333 0-.632-.056-.896-.167-.264-.116-.473-.275-.626-.476s-.238-.441-.254-.705h.745a.74.74 0 0 0 .301.531c.185.137.425.206.722.206.275 0 .492-.061.65-.182s.238-.275.238-.46c0-.191-.085-.331-.254-.42-.169-.096-.431-.188-.785-.278a6.46 6.46 0 0 1-.793-.254c-.201-.09-.375-.219-.523-.388-.143-.175-.214-.402-.214-.682a1.03 1.03 0 0 1 .198-.611c.132-.185.32-.33.563-.436s.521-.166.832-.166c.481 0 .87.121 1.166.364s.455.577.476 1h-.722a.74.74 0 0 0-.278-.548c-.164-.137-.386-.206-.666-.206-.259 0-.465.056-.618.167s-.23.256-.23.436a.5.5 0 0 0 .135.357 1.16 1.16 0 0 0 .349.222c.143.053.338.113.587.182a5.78 5.78 0 0 1 .761.254 1.26 1.26 0 0 1 .5.365c.143.163.217.377.222.642a1.1 1.1 0 0 1-.198.642c-.132.19-.32.341-.563.452a2.01 2.01 0 0 1-.825.159zm79.742-4.729c.032-.492.219-.875.563-1.15s.793-.412 1.332-.412c.37 0 .69.066.959.198s.474.312.611.539a1.46 1.46 0 0 1 .206.769c0 .328-.087.608-.262.841s-.383.388-.626.468v.031c.312.095.555.27.73.524.174.248.261.568.261.959 0 .312-.071.589-.214.833a1.5 1.5 0 0 1-.634.578c-.28.138-.616.207-1.007.207-.571 0-1.042-.146-1.412-.437-.364-.296-.56-.718-.586-1.268h.872c.021.28.129.51.325.69.196.174.46.261.793.261.322 0 .571-.087.745-.261.175-.18.262-.41.262-.69 0-.37-.119-.632-.357-.785-.233-.159-.592-.238-1.078-.238h-.206v-.745h.214c.428-.006.753-.077.975-.214s.341-.355.341-.651a.77.77 0 0 0-.246-.602c-.164-.154-.396-.23-.698-.23-.296 0-.526.076-.69.23a.9.9 0 0 0-.293.555h-.88zm5.85 2.783c.053.264.166.465.341.603s.409.206.705.206c.376 0 .65-.148.825-.444s.262-.801.262-1.515c-.127.18-.307.32-.54.42a1.89 1.89 0 0 1-.745.143c-.344 0-.655-.069-.936-.206-.28-.143-.502-.352-.666-.626-.158-.281-.237-.619-.237-1.015 0-.582.169-1.044.507-1.388.344-.349.814-.523 1.411-.523.719 0 1.229.24 1.531.721s.46 1.208.46 2.197c0 .682-.059 1.239-.175 1.673-.111.433-.306.761-.587.983s-.668.333-1.165.333c-.566 0-1.002-.148-1.309-.444a1.69 1.69 0 0 1-.515-1.118h.833zm1.007-1.348c.317 0 .565-.098.745-.293.185-.201.277-.466.277-.793 0-.365-.097-.648-.293-.849-.19-.206-.452-.309-.785-.309s-.597.106-.793.317c-.19.206-.285.479-.285.817 0 .322.092.589.277.801.191.206.476.309.857.309zm2.757-1.467c0-.386.111-.687.333-.904.227-.222.518-.333.872-.333s.643.111.865.333.341.518.341.904-.114.69-.341.912-.511.333-.865.333-.645-.111-.872-.333-.333-.526-.333-.912zm4.837-1.134L150.472 138h-.888l3.164-5.519h.888zm-3.632.444c-.333 0-.499.23-.499.69s.166.698.499.698c.159 0 .28-.056.365-.167s.135-.293.135-.531c0-.46-.167-.69-.5-.69zm2.022 3.933c0-.386.111-.687.333-.904.228-.222.518-.333.872-.333a1.16 1.16 0 0 1 .857.333c.227.217.341.518.341.904s-.114.69-.341.912a1.16 1.16 0 0 1-.857.333c-.354 0-.644-.111-.872-.333-.222-.222-.333-.526-.333-.912zm1.198-.69c-.334 0-.5.23-.5.69s.166.69.5.69.499-.23.499-.69-.166-.69-.499-.69z" fill="#000"/><rect x="16.987" y="149.217" width="5.662" height="5.652" rx="2.826" fill="#ff974a"/><path d="M32.324 149.734v.587h-1.506v4.94h-.721v-4.94h-1.515v-.587h3.742zm4.853 3.188c0 .137-.008.282-.024.436H33.68c.026.428.172.764.436 1.007.27.238.595.357.975.357.312 0 .571-.072.777-.215.212-.148.359-.343.444-.586h.777a1.89 1.89 0 0 1-.698 1.023c-.349.259-.782.388-1.3.388a2.22 2.22 0 0 1-1.11-.277 1.98 1.98 0 0 1-.761-.785c-.185-.344-.278-.74-.278-1.19a2.48 2.48 0 0 1 .27-1.181 1.87 1.87 0 0 1 .753-.777 2.25 2.25 0 0 1 1.126-.278c.412 0 .777.09 1.094.27s.56.428.73.745a2.14 2.14 0 0 1 .262 1.063zm-.745-.151c0-.275-.061-.51-.182-.706a1.15 1.15 0 0 0-.5-.452c-.206-.105-.436-.158-.69-.158a1.35 1.35 0 0 0-.936.349c-.254.232-.399.555-.436.967h2.743zm1.428.309c0-.449.09-.84.27-1.173a1.94 1.94 0 0 1 .745-.785c.322-.185.69-.278 1.102-.278.534 0 .973.13 1.316.389.349.259.579.618.69 1.078h-.777c-.074-.264-.219-.473-.436-.626-.211-.154-.476-.23-.793-.23-.412 0-.745.143-.999.428s-.381.679-.381 1.197c0 .524.127.928.381 1.213a1.27 1.27 0 0 0 .999.429c.317 0 .581-.074.793-.222s.357-.36.436-.635h.777a1.93 1.93 0 0 1-.698 1.071c-.349.264-.785.396-1.308.396-.412 0-.78-.092-1.102-.277a1.94 1.94 0 0 1-.745-.785c-.179-.338-.27-.735-.27-1.19zm7.243-2.244c.328 0 .624.072.888.214a1.45 1.45 0 0 1 .618.627c.153.28.23.621.23 1.023v2.561h-.714v-2.458c0-.434-.108-.764-.325-.991-.217-.233-.513-.349-.888-.349-.38 0-.684.119-.912.357-.222.237-.333.584-.333 1.038v2.403h-.722v-5.868h.722v2.141a1.42 1.42 0 0 1 .587-.515c.254-.122.537-.183.848-.183zm5.032 0c.529 0 .957.162 1.285.484s.492.777.492 1.38v2.561h-.714v-2.458c0-.434-.108-.764-.325-.991-.217-.233-.513-.349-.888-.349-.381 0-.685.119-.912.357s-.333.584-.333 1.038v2.403h-.721v-4.345h.721v.618c.143-.222.336-.394.579-.515s.521-.183.817-.183zm4.85 4.496c-.407 0-.777-.092-1.11-.277a2.02 2.02 0 0 1-.777-.785c-.185-.344-.278-.74-.278-1.19a2.35 2.35 0 0 1 .285-1.173 1.98 1.98 0 0 1 .793-.785c.333-.185.706-.278 1.118-.278s.785.093 1.118.278c.333.179.595.439.785.777.196.338.293.732.293 1.181s-.1.846-.301 1.19a2.05 2.05 0 0 1-.801.785c-.338.185-.714.277-1.126.277zm0-.634a1.52 1.52 0 0 0 .73-.183 1.36 1.36 0 0 0 .547-.547c.143-.243.214-.539.214-.888s-.069-.645-.206-.888a1.32 1.32 0 0 0-.539-.539 1.47 1.47 0 0 0-.721-.182 1.49 1.49 0 0 0-.73.182c-.217.116-.391.296-.523.539s-.198.539-.198.888.063.653.19.896a1.34 1.34 0 0 0 .523.547 1.48 1.48 0 0 0 .714.175zm3.898-5.305v5.868h-.721v-5.868h.721zm3.125 5.939c-.407 0-.777-.092-1.11-.277a2.02 2.02 0 0 1-.777-.785c-.185-.344-.278-.74-.278-1.19a2.35 2.35 0 0 1 .285-1.173 1.98 1.98 0 0 1 .793-.785c.333-.185.706-.278 1.118-.278s.785.093 1.118.278c.333.179.595.439.785.777.196.338.293.732.293 1.181s-.1.846-.301 1.19a2.05 2.05 0 0 1-.801.785c-.338.185-.714.277-1.126.277zm0-.634a1.52 1.52 0 0 0 .73-.183 1.36 1.36 0 0 0 .547-.547c.143-.243.214-.539.214-.888s-.069-.645-.206-.888a1.32 1.32 0 0 0-.539-.539 1.47 1.47 0 0 0-.721-.182 1.49 1.49 0 0 0-.73.182c-.217.116-.391.296-.523.539s-.198.539-.198.888.063.653.19.896a1.34 1.34 0 0 0 .523.547 1.48 1.48 0 0 0 .714.175zm4.969-3.854a1.91 1.91 0 0 1 .983.246c.285.164.497.37.634.619v-.793h.729v4.44c0 .396-.085.748-.254 1.054a1.8 1.8 0 0 1-.73.73c-.312.174-.677.262-1.094.262-.571 0-1.047-.135-1.427-.405a1.58 1.58 0 0 1-.674-1.102h.714c.079.264.243.476.492.634.248.164.547.246.896.246.397 0 .719-.124.967-.372.254-.249.381-.598.381-1.047v-.912c-.143.254-.354.465-.634.634s-.608.254-.983.254a2.01 2.01 0 0 1-1.791-1.086c-.18-.344-.27-.735-.27-1.174s.09-.832.27-1.165c.18-.339.425-.6.737-.785s.669-.278 1.054-.278zm1.618 2.236c0-.327-.066-.613-.198-.856s-.312-.428-.539-.555c-.222-.132-.468-.198-.737-.198a1.46 1.46 0 0 0-.737.19 1.38 1.38 0 0 0-.531.555c-.132.243-.198.529-.198.856 0 .333.066.624.198.873.132.243.309.43.531.562a1.46 1.46 0 0 0 .737.191 1.46 1.46 0 0 0 .737-.191c.227-.132.407-.319.539-.562.132-.249.198-.537.198-.865zm5.691-2.164l-2.617 6.39h-.745l.856-2.093-1.752-4.297h.801l1.364 3.52 1.348-3.52h.745zm64.796-.915v-.825h1.649v5.78h-.912v-4.955h-.737zm4.017 3.385c.053.265.166.466.341.603s.409.206.705.206c.376 0 .651-.148.825-.444s.262-.801.262-1.514a1.25 1.25 0 0 1-.539.42 1.92 1.92 0 0 1-.746.143 2.1 2.1 0 0 1-.935-.206 1.61 1.61 0 0 1-.666-.627c-.159-.28-.238-.618-.238-1.015 0-.581.169-1.044.507-1.387.344-.349.814-.524 1.412-.524.718 0 1.229.241 1.53.722.306.476.46 1.208.46 2.196 0 .682-.058 1.24-.175 1.673-.111.434-.306.761-.586.983s-.669.333-1.166.333c-.566 0-1.002-.148-1.308-.444a1.69 1.69 0 0 1-.516-1.118h.833zm1.007-1.347c.317 0 .565-.098.745-.294s.278-.465.278-.793c0-.364-.098-.647-.294-.848-.19-.206-.452-.309-.785-.309s-.597.105-.793.317c-.19.206-.285.478-.285.816 0 .323.092.59.277.801.191.206.476.31.857.31zm2.757-1.467c0-.386.111-.688.333-.904.228-.222.518-.333.873-.333s.642.111.864.333c.227.216.341.518.341.904s-.114.689-.341.911-.51.334-.864.334-.645-.111-.873-.334c-.222-.222-.333-.525-.333-.911zm4.837-1.134l-3.164 5.518h-.888l3.164-5.518h.888zm-3.631.444c-.334 0-.5.23-.5.69s.166.697.5.697c.158 0 .28-.055.364-.166.09-.116.135-.293.135-.531 0-.46-.166-.69-.499-.69zm2.021 3.933c0-.386.111-.688.333-.904.228-.222.518-.333.873-.333.349 0 .634.111.856.333.227.216.341.518.341.904s-.114.689-.341.911-.507.333-.856.333c-.355 0-.645-.111-.873-.333-.222-.222-.333-.525-.333-.911zm1.198-.69c-.333 0-.5.23-.5.69s.167.689.5.689.499-.229.499-.689-.166-.69-.499-.69z" fill="#000"/><rect x="16.987" y="166.174" width="5.662" height="5.652" rx="2.826" fill="#50b5ff"/><path d="M31.689 169.371a1.13 1.13 0 0 1 .547.246c.169.132.301.296.396.491a1.36 1.36 0 0 1 .151.627 1.4 1.4 0 0 1-.214.761c-.143.222-.352.399-.626.531s-.589.19-.959.19h-2.061v-5.526h1.982c.375 0 .695.063.959.19s.463.288.595.5a1.32 1.32 0 0 1 .198.713c0 .328-.09.6-.27.817-.174.211-.407.365-.698.46zm-2.046-.294h1.213c.338 0 .6-.079.785-.237s.277-.378.277-.659-.093-.499-.277-.658-.452-.238-.801-.238h-1.197v1.792zm1.277 2.546c.359 0 .64-.085.84-.254s.301-.405.301-.706c0-.306-.106-.547-.317-.721-.211-.18-.494-.27-.848-.27h-1.253v1.951h1.277zm6.718-3.751v4.345h-.721v-.642c-.138.222-.33.396-.579.523-.243.122-.513.183-.809.183-.338 0-.642-.069-.912-.206-.27-.143-.484-.355-.642-.635-.153-.28-.23-.621-.23-1.023v-2.545h.714v2.45c0 .428.108.759.325.991s.513.341.888.341c.386 0 .69-.119.912-.356s.333-.585.333-1.039v-2.387h.721zm1.591-.706c-.138 0-.254-.047-.349-.142s-.143-.212-.143-.349.048-.254.143-.349.211-.143.349-.143a.44.44 0 0 1 .333.143c.095.095.143.211.143.349a.47.47 0 0 1-.143.349.44.44 0 0 1-.333.142zm.349.706v4.345h-.722v-4.345h.722zm1.951-1.522v5.867h-.722v-5.867h.722zm.96 3.679c0-.444.09-.833.27-1.166a1.96 1.96 0 0 1 .737-.785 2.07 2.07 0 0 1 1.063-.277 1.94 1.94 0 0 1 .944.238c.291.153.513.356.666.61v-2.299h.73v5.867h-.73v-.816c-.143.259-.354.473-.634.642a1.91 1.91 0 0 1-.983.246c-.386 0-.737-.096-1.055-.286a1.99 1.99 0 0 1-.737-.801 2.49 2.49 0 0 1-.27-1.173zm3.679.008c0-.328-.066-.613-.198-.857a1.36 1.36 0 0 0-.539-.555c-.222-.132-.468-.198-.737-.198a1.47 1.47 0 0 0-.737.19 1.38 1.38 0 0 0-.531.556c-.132.243-.198.528-.198.856s.066.624.198.872c.132.243.309.431.531.563a1.46 1.46 0 0 0 .737.19 1.46 1.46 0 0 0 .737-.19 1.42 1.42 0 0 0 .539-.563 1.81 1.81 0 0 0 .198-.864zm2.322-2.871c-.138 0-.254-.047-.349-.142s-.143-.212-.143-.349.048-.254.143-.349.211-.143.349-.143a.44.44 0 0 1 .333.143c.095.095.143.211.143.349a.47.47 0 0 1-.143.349.44.44 0 0 1-.333.142zm.349.706v4.345h-.722v-4.345h.722zm3.347-.079c.529 0 .957.161 1.285.484.328.317.492.777.492 1.379v2.561h-.714v-2.458c0-.433-.108-.764-.325-.991s-.513-.349-.888-.349c-.381 0-.684.119-.912.357-.222.238-.333.584-.333 1.039v2.402h-.722v-4.345h.722v.619c.143-.222.336-.394.579-.516a1.84 1.84 0 0 1 .817-.182zm4.747.008a1.91 1.91 0 0 1 .983.246 1.62 1.62 0 0 1 .634.618v-.793h.73v4.44a2.15 2.15 0 0 1-.254 1.055 1.79 1.79 0 0 1-.73.729 2.2 2.2 0 0 1-1.094.262c-.571 0-1.047-.135-1.427-.404a1.58 1.58 0 0 1-.674-1.102h.714a1.12 1.12 0 0 0 .492.634c.248.164.547.246.896.246.396 0 .719-.124.967-.373.254-.248.381-.597.381-1.047v-.911a1.74 1.74 0 0 1-.634.634c-.28.169-.608.254-.983.254-.386 0-.737-.096-1.055-.286a1.99 1.99 0 0 1-.737-.801 2.49 2.49 0 0 1-.27-1.173c0-.444.09-.833.27-1.166a1.96 1.96 0 0 1 .737-.785c.317-.185.669-.277 1.055-.277zm1.617 2.236c0-.328-.066-.613-.198-.857a1.36 1.36 0 0 0-.539-.555c-.222-.132-.468-.198-.737-.198a1.47 1.47 0 0 0-.737.19c-.222.127-.399.312-.531.556s-.198.528-.198.856.066.624.198.872c.132.243.309.431.531.563a1.46 1.46 0 0 0 .737.19 1.46 1.46 0 0 0 .737-.19 1.42 1.42 0 0 0 .539-.563 1.81 1.81 0 0 0 .198-.864zm3.487 2.252c-.333 0-.632-.056-.896-.167-.264-.116-.473-.275-.626-.476s-.238-.441-.254-.705h.745c.021.216.122.394.301.531.185.137.425.206.722.206.275 0 .492-.061.65-.182s.238-.275.238-.46a.45.45 0 0 0-.254-.42c-.169-.096-.431-.188-.785-.278a6.28 6.28 0 0 1-.793-.254c-.201-.089-.375-.219-.523-.388-.143-.175-.214-.402-.214-.682a1.03 1.03 0 0 1 .198-.611c.132-.185.32-.33.563-.436s.521-.166.833-.166c.481 0 .87.121 1.166.365s.455.576.476.999h-.721a.74.74 0 0 0-.278-.548c-.164-.137-.386-.206-.666-.206-.259 0-.465.056-.618.167s-.23.256-.23.436a.5.5 0 0 0 .135.357 1.16 1.16 0 0 0 .349.222c.143.053.338.113.587.182a5.77 5.77 0 0 1 .761.254 1.26 1.26 0 0 1 .5.365c.143.163.217.378.222.642a1.1 1.1 0 0 1-.198.642c-.132.19-.32.341-.563.452a2.01 2.01 0 0 1-.825.159zm77.045-5.332v-.824h1.649v5.78h-.912v-4.956h-.737zm3.866 1.935a1.36 1.36 0 0 1-.824-1.3c0-.286.071-.547.214-.785s.356-.426.642-.563c.285-.143.634-.214 1.047-.214.407 0 .753.071 1.038.214.291.137.508.325.65.563s.215.499.215.785c0 .296-.077.557-.23.785a1.49 1.49 0 0 1-.595.515c.301.111.539.293.714.547a1.5 1.5 0 0 1 .261.88 1.62 1.62 0 0 1-.261.912c-.175.264-.418.468-.73.611s-.666.214-1.062.214-.751-.072-1.063-.214-.547-.347-.721-.611a1.62 1.62 0 0 1-.262-.912c0-.344.087-.639.262-.888a1.47 1.47 0 0 1 .705-.539zm2.117-1.189c0-.296-.092-.524-.277-.682s-.439-.238-.761-.238-.569.079-.754.238-.277.388-.277.69a.83.83 0 0 0 .285.65c.196.164.444.246.746.246s.549-.085.745-.254a.82.82 0 0 0 .293-.65zm-1.038 1.585c-.349 0-.635.088-.857.262s-.325.415-.325.738c0 .301.106.547.317.737s.5.277.865.277c.359 0 .642-.095.848-.285s.317-.433.317-.729c0-.318-.108-.563-.325-.738-.211-.174-.492-.262-.84-.262zm2.86-1.76c0-.386.111-.687.333-.904s.518-.333.872-.333.642.111.864.333.341.518.341.904-.114.69-.341.912-.51.333-.864.333-.645-.111-.872-.333-.333-.526-.333-.912zm4.836-1.134l-3.163 5.519h-.889l3.164-5.519h.888zm-3.631.444c-.333 0-.5.23-.5.69s.167.698.5.698a.43.43 0 0 0 .364-.167c.09-.116.135-.293.135-.531 0-.46-.166-.69-.499-.69zm2.022 3.933c0-.386.111-.687.333-.904s.518-.333.872-.333.634.111.856.333c.228.217.341.518.341.904s-.113.69-.341.912c-.222.222-.507.333-.856.333s-.645-.111-.872-.333-.333-.526-.333-.912zm1.197-.69c-.333 0-.5.23-.5.69s.167.69.5.69.499-.23.499-.69-.166-.69-.499-.69z" fill="#000"/><rect x="16.987" y="183.13" width="5.662" height="5.652" rx="2.826" fill="#0062ff"/><path d="M34.528 183.687v5.487h-.722v-4.091l-1.824 4.091h-.508l-1.832-4.099v4.099h-.721v-5.487h.777l2.03 4.535 2.03-4.535h.769zm.954 3.299c0-.444.09-.833.27-1.166a1.96 1.96 0 0 1 .737-.785c.317-.185.669-.278 1.055-.278.381 0 .711.082.991.246s.489.37.626.619v-.793h.73v4.345h-.73v-.809c-.143.254-.357.465-.642.635a1.92 1.92 0 0 1-.983.245 1.97 1.97 0 0 1-1.047-.285 1.99 1.99 0 0 1-.737-.801c-.179-.344-.27-.735-.27-1.173zm3.679.007c0-.327-.066-.613-.198-.856s-.312-.428-.539-.555c-.222-.132-.468-.198-.737-.198a1.46 1.46 0 0 0-.737.19 1.38 1.38 0 0 0-.531.555 1.77 1.77 0 0 0-.198.857c0 .328.066.623.198.872.132.243.309.431.531.563a1.46 1.46 0 0 0 .737.19 1.46 1.46 0 0 0 .737-.19 1.42 1.42 0 0 0 .539-.563c.132-.249.198-.537.198-.865zm4.066-2.243c.529 0 .957.161 1.285.483s.492.777.492 1.38v2.561h-.714v-2.458c0-.434-.108-.764-.325-.991-.217-.233-.513-.349-.888-.349-.381 0-.684.119-.912.357-.222.238-.333.584-.333 1.038v2.403h-.721v-4.345h.721v.618c.143-.222.336-.394.579-.515s.521-.182.817-.182zm6.808.079v4.345h-.722v-.642a1.42 1.42 0 0 1-.579.523c-.243.122-.513.182-.809.182a1.97 1.97 0 0 1-.912-.206c-.27-.142-.484-.354-.642-.634-.153-.28-.23-.621-.23-1.023v-2.545h.714v2.45c0 .428.108.758.325.991.217.227.513.341.888.341.386 0 .69-.119.912-.357s.333-.584.333-1.039v-2.386h.722zm2.986.595h-.912v3.75h-.722v-3.75h-.563v-.595h.563v-.309c0-.487.124-.841.373-1.063.254-.227.658-.341 1.213-.341v.603c-.317 0-.542.063-.674.19s-.19.325-.19.611v.309h.912v.595zm.572 1.562c0-.444.09-.833.27-1.166a1.96 1.96 0 0 1 .737-.785c.317-.185.669-.278 1.055-.278.38 0 .711.082.991.246s.489.37.626.619v-.793h.73v4.345h-.73v-.809c-.143.254-.357.465-.642.635a1.92 1.92 0 0 1-.983.245 1.97 1.97 0 0 1-1.047-.285 1.99 1.99 0 0 1-.737-.801c-.179-.344-.27-.735-.27-1.173zm3.679.007c0-.327-.066-.613-.198-.856s-.312-.428-.539-.555c-.222-.132-.468-.198-.737-.198a1.46 1.46 0 0 0-.737.19 1.38 1.38 0 0 0-.531.555 1.77 1.77 0 0 0-.198.857c0 .328.066.623.198.872.132.243.309.431.531.563a1.46 1.46 0 0 0 .737.19 1.46 1.46 0 0 0 .737-.19 1.42 1.42 0 0 0 .539-.563c.132-.249.198-.537.198-.865zm1.679 0c0-.449.09-.84.27-1.173s.428-.6.745-.785c.322-.185.69-.278 1.102-.278.534 0 .973.13 1.316.389.349.259.579.618.69 1.078h-.777a1.11 1.11 0 0 0-.436-.626c-.212-.153-.476-.23-.793-.23-.412 0-.745.143-.999.428s-.381.679-.381 1.197c0 .524.127.928.381 1.214a1.27 1.27 0 0 0 .999.428c.317 0 .581-.074.793-.222s.357-.36.436-.635h.777a1.93 1.93 0 0 1-.698 1.071c-.349.264-.785.396-1.308.396-.412 0-.78-.092-1.102-.277a1.94 1.94 0 0 1-.745-.785c-.179-.338-.27-.735-.27-1.19zm5.966-1.569v2.561c0 .211.045.362.135.452.09.084.246.126.468.126h.531v.611h-.65c-.402 0-.703-.093-.904-.278s-.301-.489-.301-.911v-2.561h-.563v-.595h.563v-1.094h.721v1.094h1.134v.595h-1.134zm5.862-.595v4.345h-.722v-.642c-.138.222-.33.396-.579.523-.243.122-.513.182-.809.182a1.97 1.97 0 0 1-.912-.206c-.27-.142-.484-.354-.642-.634s-.23-.621-.23-1.023v-2.545h.714v2.45c0 .428.108.758.325.991.217.227.513.341.888.341.386 0 .69-.119.912-.357s.333-.584.333-1.039v-2.386h.722zm1.94.706a1.39 1.39 0 0 1 .539-.579c.238-.138.526-.206.864-.206v.745h-.19c-.809 0-1.213.439-1.213 1.316v2.363h-.722v-4.345h.722v.706zm2.609-1.412a.47.47 0 0 1-.349-.143c-.095-.095-.143-.211-.143-.348s.048-.254.143-.349.212-.143.349-.143a.44.44 0 0 1 .333.143c.095.095.143.211.143.349a.47.47 0 0 1-.143.348c-.09.096-.201.143-.333.143zm.349.706v4.345h-.722v-4.345h.722zm3.347-.079c.529 0 .957.161 1.285.483s.492.777.492 1.38v2.561h-.714v-2.458c0-.434-.108-.764-.325-.991-.217-.233-.513-.349-.888-.349-.381 0-.684.119-.912.357-.222.238-.333.584-.333 1.038v2.403h-.722v-4.345h.722v.618c.143-.222.336-.394.579-.515.248-.122.521-.182.817-.182zm4.747.007a1.91 1.91 0 0 1 .983.246c.285.164.497.37.634.619v-.793h.73v4.44a2.15 2.15 0 0 1-.254 1.055 1.79 1.79 0 0 1-.73.729 2.2 2.2 0 0 1-1.094.262c-.571 0-1.047-.135-1.427-.405a1.58 1.58 0 0 1-.674-1.102h.714a1.12 1.12 0 0 0 .492.635c.249.163.547.245.896.245.396 0 .719-.124.967-.372.254-.249.381-.598.381-1.047v-.912c-.143.254-.354.465-.634.635s-.608.253-.983.253c-.386 0-.737-.095-1.055-.285a2 2 0 0 1-.737-.801c-.18-.344-.27-.735-.27-1.173 0-.444.09-.833.27-1.166a1.96 1.96 0 0 1 .737-.785c.317-.185.669-.278 1.055-.278zm1.617 2.236c0-.327-.066-.613-.198-.856s-.312-.428-.539-.555c-.222-.132-.468-.198-.737-.198a1.46 1.46 0 0 0-.737.19 1.38 1.38 0 0 0-.531.555 1.77 1.77 0 0 0-.198.857c0 .328.066.623.198.872.132.243.309.431.531.563a1.46 1.46 0 0 0 .737.19 1.46 1.46 0 0 0 .737-.19 1.42 1.42 0 0 0 .539-.563c.132-.249.198-.537.198-.865zm53.694-3.079v-.825h1.649v5.781h-.912v-4.956h-.737zm3.39 3.727l1.198-1.079a4.85 4.85 0 0 0 .737-.888c.196-.306.294-.613.294-.92 0-.317-.077-.565-.23-.745s-.384-.27-.706-.27c-.312 0-.555.101-.73.302-.169.195-.259.46-.269.793h-.872c.015-.603.195-1.063.539-1.38s.79-.484 1.324-.484c.576 0 1.025.159 1.348.476s.491.74.491 1.269c0 .38-.097.748-.293 1.102a4.34 4.34 0 0 1-.69.943l-1.015.96-.356.317h2.513v.753h-3.853v-.658l.57-.491zm3.934-3.156c0-.386.111-.687.333-.904.228-.222.518-.333.873-.333s.642.111.864.333.341.518.341.904-.114.69-.341.912-.51.333-.864.333-.645-.111-.873-.333c-.222-.222-.333-.526-.333-.912zm4.837-1.134l-3.164 5.519h-.888l3.164-5.519h.888zm-3.631.444c-.333 0-.5.23-.5.69s.167.697.5.697c.158 0 .28-.055.364-.166.09-.116.135-.293.135-.531 0-.46-.166-.69-.499-.69zm2.022 3.933c0-.386.111-.687.333-.904.227-.222.518-.333.872-.333s.634.111.856.333.341.518.341.904-.114.69-.341.912-.507.333-.856.333-.645-.111-.872-.333-.333-.526-.333-.912zm1.197-.69c-.333 0-.5.23-.5.69s.167.69.5.69.499-.23.499-.69-.166-.69-.499-.69z" fill="#000"/><rect x="16.987" y="200.087" width="5.662" height="5.652" rx="2.826" fill="#3dd598"/><path d="M31.428 206.186c-.513 0-.981-.119-1.403-.357s-.759-.579-1.007-1.007a2.93 2.93 0 0 1-.365-1.459c0-.539.122-1.023.365-1.451.248-.433.584-.769 1.007-1.007s.891-.364 1.403-.364a2.78 2.78 0 0 1 1.411.364 2.59 2.59 0 0 1 .999.999c.243.428.365.915.365 1.459a2.9 2.9 0 0 1-.365 1.459 2.65 2.65 0 0 1-.999 1.007c-.423.238-.893.357-1.411.357zm0-.626c.386 0 .732-.09 1.039-.27a1.86 1.86 0 0 0 .729-.769c.18-.333.27-.719.27-1.158s-.09-.83-.27-1.157c-.174-.333-.415-.59-.721-.77s-.655-.269-1.047-.269-.74.09-1.047.269a1.93 1.93 0 0 0-.73.77c-.174.327-.262.713-.262 1.157s.087.825.262 1.158.423.589.73.769.661.27 1.047.27zm4.608-3.18v2.561c0 .212.045.362.135.452s.246.127.468.127h.531v.61h-.65c-.402 0-.703-.092-.904-.277s-.301-.489-.301-.912v-2.561h-.563v-.595h.563v-1.094h.722v1.094h1.134v.595h-1.134zm4.165-.674c.328 0 .624.071.888.214s.471.346.619.627.23.621.23 1.022v2.561h-.714v-2.458c0-.433-.108-.763-.325-.991s-.513-.349-.888-.349c-.381 0-.685.119-.912.357s-.333.584-.333 1.039v2.402h-.721v-5.867h.721v2.141a1.43 1.43 0 0 1 .587-.516c.254-.121.536-.182.848-.182zm6.88 2.085a4.23 4.23 0 0 1-.024.437h-3.473c.026.428.172.763.436 1.007.27.237.595.356.975.356.312 0 .571-.071.777-.214a1.16 1.16 0 0 0 .444-.587h.777c-.116.418-.349.759-.698 1.023s-.782.389-1.3.389a2.22 2.22 0 0 1-1.11-.278c-.322-.185-.576-.446-.761-.785s-.278-.74-.278-1.189a2.48 2.48 0 0 1 .27-1.181 1.87 1.87 0 0 1 .753-.777 2.25 2.25 0 0 1 1.126-.278c.412 0 .777.09 1.094.27a1.83 1.83 0 0 1 .73.745c.174.312.262.666.262 1.062zm-.745-.15c0-.275-.061-.51-.182-.706a1.15 1.15 0 0 0-.499-.452c-.206-.106-.436-.158-.69-.158-.365 0-.677.116-.936.348-.254.233-.399.555-.436.968h2.744zm2.419-1.15c.127-.248.307-.441.539-.579.238-.137.526-.206.864-.206v.745h-.19c-.809 0-1.213.439-1.213 1.317v2.362h-.722v-4.345h.722v.706zm90.335 2.13v-.682l2.664-3.822h1.094v3.719h.738v.785h-.738v1.205h-.888v-1.205h-2.87zm2.91-3.584l-1.871 2.799H142v-2.799zm2.192.404c0-.386.111-.687.333-.904.227-.222.518-.333.872-.333s.642.111.864.333c.228.217.341.518.341.904s-.113.69-.341.912c-.222.222-.51.333-.864.333s-.645-.111-.872-.333-.333-.526-.333-.912zm4.837-1.134l-3.164 5.519h-.888l3.164-5.519h.888zm-3.632.444c-.333 0-.499.23-.499.69s.166.698.499.698c.159 0 .28-.056.365-.167.09-.116.135-.293.135-.531 0-.46-.167-.69-.5-.69zm2.022 3.933c0-.386.111-.687.333-.904s.518-.333.872-.333a1.16 1.16 0 0 1 .857.333c.227.217.341.518.341.904s-.114.69-.341.912a1.16 1.16 0 0 1-.857.333c-.354 0-.645-.111-.872-.333s-.333-.526-.333-.912zm1.197-.69c-.333 0-.499.23-.499.69s.166.69.499.69.5-.23.5-.69-.167-.69-.5-.69z" fill="#000"/><g stroke-width="7.929"><path d="M85.217 113.609c19.232 0 34.823-15.563 34.823-34.761s-15.591-34.761-34.823-34.761S50.394 59.65 50.394 78.848s15.591 34.761 34.823 34.761z" stroke="#0062ff"/><g stroke-linecap="round" stroke-linejoin="round"><path d="M62.403 52.5c-2.073 1.781-3.968 3.836-5.63 6.156-7.606 10.621-8.368 24.059-3.156 35.083" stroke="#50b5ff"/><path d="M51.387 70.571c-.649 2.653-.993 5.424-.993 8.276 0 13.055 7.21 24.43 17.872 30.372" stroke="#3dd598"/><path d="M68.314 109.246c5.006 2.779 10.769 4.362 16.903 4.362h0" stroke="#ff974a"/><path d="M85.217 113.609c19.232 0 34.823-15.563 34.823-34.761s-15.591-34.761-34.823-34.761" stroke="#ffc542"/></g></g></svg>