<svg width="56" height="56" viewBox="0 0 56 56" fill="none" xmlns="http://www.w3.org/2000/svg">
<path d="M38 2.10712H18V12.1071H38V2.10712Z" stroke="#3B4555" stroke-width="2" stroke-linecap="round" stroke-linejoin="round"/>
<path d="M38 6.39288H46C46.5304 6.39288 47.0391 6.6036 47.4142 6.97867C47.7893 7.35374 48 7.86245 48 8.39288V50.3929C48 50.9233 47.7893 51.432 47.4142 51.8071C47.0391 52.1822 46.5304 52.3929 46 52.3929H10C9.46957 52.3929 8.96086 52.1822 8.58579 51.8071C8.21071 51.432 8 50.9233 8 50.3929V8.39288C8 7.86245 8.21071 7.35374 8.58579 6.97867C8.96086 6.6036 9.46957 6.39288 10 6.39288H18" stroke="#3B4555" stroke-width="2" stroke-linecap="round" stroke-linejoin="round"/>
<path d="M20 34.3929H36" stroke="#3DD598" stroke-width="2" stroke-linecap="round" stroke-linejoin="round"/>
<path d="M20 26.3929H36" stroke="#3DD598" stroke-width="2" stroke-linecap="round" stroke-linejoin="round"/>
</svg>
