<svg xmlns="http://www.w3.org/2000/svg" width="427" height="266" fill="none" xmlns:v="https://vecta.io/nano"><style><![CDATA[.B{fill:#0062ff}.C{fill:#50b5ff}.D{fill:#ff974a}.E{fill:#ffc542}.F{fill-rule:evenodd}.G{fill:#3dd598}.H{fill:#000}]]></style><path d="M0 6.803C0 3.046 3.046 0 6.803 0h413.394C423.954 0 427 3.046 427 6.803v252.394c0 3.757-3.046 6.803-6.803 6.803H6.803C3.046 266 0 262.954 0 259.197V6.803z" fill="#fff"/><rect x="365.806" y="49.662" width="6.799" height="6.803" rx="3.4" class="G"/><path d="M379.893 55.998c-.528 0-1.01-.122-1.445-.367a2.79 2.79 0 0 1-1.037-1.037 3.02 3.02 0 0 1-.375-1.502c0-.555.125-1.053.375-1.494.256-.446.602-.792 1.037-1.037.435-.25.917-.376 1.445-.376a2.86 2.86 0 0 1 1.453.376c.435.245.778.588 1.029 1.029s.375.942.375 1.502-.125 1.061-.375 1.502-.594.786-1.029 1.037a2.91 2.91 0 0 1-1.453.367zm0-.645c.397 0 .754-.093 1.069-.278.321-.185.572-.449.751-.792.185-.343.278-.74.278-1.192 0-.457-.093-.854-.278-1.192-.179-.343-.427-.607-.742-.792s-.675-.278-1.078-.278-.762.093-1.078.278-.566.449-.751.792c-.179.337-.269.735-.269 1.192 0 .452.09.849.269 1.192.185.343.436.607.751.792a2.12 2.12 0 0 0 1.078.278zm4.744-3.274v2.637c0 .218.046.373.139.465.092.087.253.131.482.131h.546v.629h-.669c-.414 0-.724-.095-.931-.286s-.31-.503-.31-.939V52.08h-.579v-.612h.579v-1.127h.743v1.127h1.167v.612h-1.167zm4.288-.694a1.89 1.89 0 0 1 .914.22c.273.142.485.356.637.645.158.288.237.64.237 1.053v2.637h-.735V53.41c0-.446-.111-.786-.334-1.02-.224-.239-.528-.359-.915-.359s-.705.122-.939.367c-.228.245-.343.601-.343 1.069v2.474h-.742V49.9h.742v2.204a1.47 1.47 0 0 1 .605-.531c.261-.125.552-.188.873-.188zm7.083 2.147a4.46 4.46 0 0 1-.024.449h-3.576c.027.441.177.786.449 1.037.278.245.612.367 1.004.367.321 0 .588-.073.8-.22a1.2 1.2 0 0 0 .457-.604h.801c-.12.43-.36.781-.719 1.053-.359.267-.805.4-1.339.4-.424 0-.805-.095-1.143-.286-.332-.191-.593-.46-.783-.808-.191-.354-.286-.762-.286-1.225s.092-.868.277-1.216.444-.615.776-.8c.337-.191.724-.286 1.159-.286.425 0 .8.093 1.127.278a1.89 1.89 0 0 1 .751.767c.18.321.269.686.269 1.094zm-.767-.155c0-.283-.063-.525-.188-.727a1.18 1.18 0 0 0-.514-.465 1.53 1.53 0 0 0-.71-.163c-.376 0-.697.12-.964.359-.261.239-.411.572-.449.996h2.825zm2.491-1.184c.13-.256.315-.454.555-.596.245-.142.541-.212.89-.212v.767h-.196c-.833 0-1.249.452-1.249 1.355v2.433h-.743v-4.474h.743v.727z" class="H"/><rect x="210.78" y="49.662" width="6.799" height="6.803" rx="3.4" class="B"/><path d="M228.06 50.292v5.649h-.743v-4.212l-1.878 4.212h-.523l-1.885-4.221v4.221h-.743v-5.649h.8l2.09 4.67 2.09-4.67h.792zm.982 3.396c0-.457.092-.857.277-1.2a2.02 2.02 0 0 1 .76-.808 2.11 2.11 0 0 1 1.085-.286c.392 0 .732.084 1.021.253s.503.381.645.637v-.816h.751v4.474h-.751v-.833c-.147.261-.368.479-.661.653-.289.169-.626.253-1.013.253-.397 0-.756-.098-1.077-.294s-.575-.471-.76-.825-.277-.757-.277-1.208zm3.788.008c0-.337-.068-.631-.204-.882s-.321-.441-.555-.572a1.46 1.46 0 0 0-.76-.204c-.277 0-.53.065-.759.196s-.411.321-.547.572a1.82 1.82 0 0 0-.204.882c0 .343.068.642.204.898.136.25.319.444.547.58.229.131.482.196.759.196s.531-.065.76-.196a1.46 1.46 0 0 0 .555-.58c.136-.256.204-.552.204-.89zm4.186-2.31c.544 0 .985.166 1.322.498.338.327.507.8.507 1.42v2.637h-.735V53.41c0-.446-.112-.786-.335-1.02-.223-.239-.528-.359-.914-.359-.392 0-.705.122-.939.367-.229.245-.343.601-.343 1.069v2.474h-.743v-4.474h.743v.637c.147-.229.346-.405.596-.531.256-.125.536-.188.841-.188zm7.01.082v4.474h-.743v-.661a1.47 1.47 0 0 1-.596.539c-.251.125-.528.188-.833.188a2.04 2.04 0 0 1-.939-.212c-.277-.147-.498-.365-.661-.653-.158-.288-.237-.639-.237-1.053v-2.62h.735v2.523c0 .441.112.781.335 1.02.223.234.528.351.914.351.397 0 .71-.122.939-.367s.343-.601.343-1.069v-2.457h.743zm3.075.612h-.939v3.861h-.743V52.08h-.58v-.612h.58v-.318c0-.501.128-.865.384-1.094.261-.234.677-.351 1.249-.351v.62c-.327 0-.558.065-.694.196-.131.125-.196.335-.196.629v.318h.939v.612zm.588 1.608c0-.457.093-.857.278-1.2.185-.348.438-.618.759-.808s.688-.286 1.086-.286c.392 0 .732.084 1.02.253s.504.381.645.637v-.816h.751v4.474h-.751v-.833a1.77 1.77 0 0 1-.661.653 1.97 1.97 0 0 1-1.012.253c-.398 0-.757-.098-1.078-.294a2.06 2.06 0 0 1-.759-.825c-.185-.354-.278-.757-.278-1.208zm3.788.008c0-.337-.068-.631-.204-.882s-.321-.441-.555-.572a1.46 1.46 0 0 0-.759-.204c-.278 0-.531.065-.76.196s-.41.321-.547.572a1.82 1.82 0 0 0-.204.882c0 .343.068.642.204.898a1.49 1.49 0 0 0 .547.58c.229.131.482.196.76.196s.53-.065.759-.196a1.46 1.46 0 0 0 .555-.58c.136-.256.204-.552.204-.89zm1.729 0c0-.463.093-.865.278-1.208.185-.348.44-.618.767-.808s.71-.286 1.135-.286c.549 0 1.001.133 1.355.4a1.88 1.88 0 0 1 .71 1.11h-.8a1.14 1.14 0 0 0-.449-.645c-.218-.158-.49-.237-.816-.237-.425 0-.768.147-1.029.441-.261.288-.392.699-.392 1.233 0 .539.131.955.392 1.249s.604.441 1.029.441c.326 0 .598-.076.816-.229s.367-.37.449-.653h.8a1.99 1.99 0 0 1-.718 1.102c-.359.272-.808.408-1.347.408-.425 0-.803-.095-1.135-.286s-.582-.46-.767-.808-.278-.756-.278-1.225zm6.143-1.616v2.637c0 .218.046.373.138.465.093.087.253.131.482.131h.547v.629h-.669c-.414 0-.724-.095-.931-.286s-.31-.503-.31-.939V52.08h-.58v-.612h.58v-1.127h.743v1.127h1.167v.612h-1.167zm6.035-.612v4.474h-.743v-.661a1.47 1.47 0 0 1-.596.539c-.251.125-.528.188-.833.188a2.04 2.04 0 0 1-.939-.212c-.277-.147-.498-.365-.661-.653s-.237-.639-.237-1.053v-2.62h.735v2.523c0 .441.112.781.335 1.02.223.234.528.351.914.351.397 0 .71-.122.939-.367s.343-.601.343-1.069v-2.457h.743zm1.997.727a1.43 1.43 0 0 1 .555-.596c.245-.142.541-.212.89-.212v.767h-.196c-.833 0-1.249.452-1.249 1.355v2.433h-.743v-4.474h.743v.727zm2.686-1.453a.49.49 0 0 1-.506-.506.49.49 0 0 1 .506-.506c.136 0 .25.049.343.147a.49.49 0 0 1 .147.359.49.49 0 0 1-.147.359c-.093.098-.207.147-.343.147zm.359.727v4.474h-.743v-4.474h.743zm3.446-.082c.544 0 .985.166 1.323.498.337.327.506.8.506 1.42v2.637h-.735V53.41c0-.446-.112-.786-.335-1.02-.223-.239-.528-.359-.914-.359-.392 0-.705.122-.939.367-.228.245-.343.601-.343 1.069v2.474h-.743v-4.474h.743v.637c.147-.229.346-.405.596-.531.256-.125.536-.188.841-.188zm4.887.008a1.97 1.97 0 0 1 1.013.253c.293.169.511.381.653.637v-.816h.751v4.572c0 .408-.087.77-.261 1.086-.175.321-.425.572-.752.751-.321.18-.696.269-1.126.269-.588 0-1.078-.139-1.47-.416a1.63 1.63 0 0 1-.694-1.135h.735c.082.272.251.49.506.653a1.64 1.64 0 0 0 .923.253c.408 0 .74-.128.996-.384s.392-.615.392-1.078V55.1c-.147.261-.365.479-.653.653s-.626.261-1.013.261c-.397 0-.759-.098-1.085-.294s-.575-.471-.76-.825-.277-.757-.277-1.208c0-.457.092-.857.277-1.2a2.01 2.01 0 0 1 .76-.808 2.11 2.11 0 0 1 1.085-.286zm1.666 2.302c0-.337-.068-.631-.204-.882s-.322-.441-.556-.572c-.228-.136-.481-.204-.759-.204s-.53.065-.759.196a1.42 1.42 0 0 0-.547.572 1.82 1.82 0 0 0-.204.882c0 .343.068.642.204.898.136.25.318.444.547.58.229.131.482.196.759.196a1.5 1.5 0 0 0 .759-.196c.234-.136.42-.329.556-.58.136-.256.204-.552.204-.89zm3.905-.008c0-.457.093-.857.278-1.2.185-.348.438-.618.759-.808s.688-.286 1.086-.286c.391 0 .732.084 1.02.253s.503.381.645.637v-.816h.751v4.474h-.751v-.833a1.77 1.77 0 0 1-.661.653c-.289.169-.626.253-1.013.253-.397 0-.756-.098-1.077-.294a2.06 2.06 0 0 1-.759-.825c-.185-.354-.278-.757-.278-1.208zm3.788.008c0-.337-.068-.631-.204-.882s-.321-.441-.555-.572a1.46 1.46 0 0 0-.759-.204c-.278 0-.531.065-.76.196s-.411.321-.547.572a1.82 1.82 0 0 0-.204.882c0 .343.068.642.204.898.136.25.319.444.547.58.229.131.482.196.76.196s.53-.065.759-.196a1.46 1.46 0 0 0 .555-.58c.136-.256.204-.552.204-.89zm4.186-2.31c.544 0 .985.166 1.323.498.337.327.506.8.506 1.42v2.637h-.735V53.41c0-.446-.111-.786-.335-1.02-.223-.239-.528-.359-.914-.359-.392 0-.705.122-.939.367-.228.245-.343.601-.343 1.069v2.474h-.743v-4.474h.743v.637c.147-.229.346-.405.596-.531.256-.125.536-.188.841-.188zm2.765 2.302c0-.457.092-.857.277-1.2a2.01 2.01 0 0 1 .76-.808 2.13 2.13 0 0 1 1.094-.286c.348 0 .672.082.971.245.299.158.528.367.686.629V49.9h.751v6.041h-.751V55.1a1.77 1.77 0 0 1-.653.661c-.289.169-.626.253-1.013.253-.397 0-.759-.098-1.085-.294s-.575-.471-.76-.825-.277-.757-.277-1.208zm3.788.008c0-.337-.068-.631-.204-.882s-.321-.441-.555-.572a1.46 1.46 0 0 0-.76-.204c-.277 0-.53.065-.759.196s-.411.321-.547.572a1.82 1.82 0 0 0-.204.882c0 .343.068.642.204.898.136.25.319.444.547.58.229.131.482.196.759.196s.531-.065.76-.196a1.46 1.46 0 0 0 .555-.58c.136-.256.204-.552.204-.89zm9.563-2.31c.348 0 .658.073.93.22.272.142.487.356.645.645s.237.64.237 1.053v2.637h-.735V53.41c0-.446-.111-.786-.335-1.02-.217-.239-.514-.359-.889-.359-.387 0-.694.125-.923.376-.228.245-.343.601-.343 1.069v2.465h-.734V53.41c0-.446-.112-.786-.335-1.02-.218-.239-.515-.359-.89-.359-.386 0-.694.125-.923.376-.228.245-.342.601-.342 1.069v2.465h-.743v-4.474h.743v.645c.147-.234.342-.414.587-.539.251-.125.526-.188.825-.188.375 0 .707.084.996.253a1.55 1.55 0 0 1 .645.743c.125-.316.332-.561.62-.735a1.83 1.83 0 0 1 .964-.261zm4.982 4.629c-.419 0-.8-.095-1.143-.286s-.604-.46-.8-.808c-.191-.354-.286-.762-.286-1.225 0-.457.098-.86.294-1.208a2.04 2.04 0 0 1 .816-.808 2.33 2.33 0 0 1 1.151-.286c.425 0 .808.095 1.151.286.343.185.613.452.809.8a2.39 2.39 0 0 1 .302 1.216 2.38 2.38 0 0 1-.311 1.225 2.1 2.1 0 0 1-.824.808c-.348.191-.735.286-1.159.286zm0-.653a1.57 1.57 0 0 0 .751-.188c.234-.125.421-.313.563-.563s.22-.555.22-.914-.07-.664-.212-.914-.326-.435-.555-.555a1.52 1.52 0 0 0-.743-.188 1.54 1.54 0 0 0-.751.188c-.223.12-.403.305-.539.555s-.204.555-.204.914c0 .365.065.672.196.922.136.25.316.438.539.563a1.53 1.53 0 0 0 .735.18zm4.936-.106l1.388-3.788h.791l-1.755 4.474h-.865l-1.755-4.474h.8l1.396 3.788zm6.992-1.723a4.46 4.46 0 0 1-.024.449h-3.576c.027.441.177.786.449 1.037.278.245.612.367 1.004.367.321 0 .588-.073.8-.22.218-.152.37-.354.458-.604h.8c-.12.43-.36.781-.719 1.053-.359.267-.805.4-1.339.4-.424 0-.805-.095-1.143-.286-.332-.191-.593-.46-.783-.808-.191-.354-.286-.762-.286-1.225s.092-.868.278-1.216.443-.615.775-.8c.338-.191.724-.286 1.159-.286.425 0 .8.093 1.127.278a1.89 1.89 0 0 1 .751.767c.18.321.269.686.269 1.094zm-.767-.155c0-.283-.063-.525-.188-.727a1.18 1.18 0 0 0-.514-.465 1.53 1.53 0 0 0-.71-.163c-.376 0-.697.12-.964.359-.261.239-.411.572-.449.996h2.825zm7.128-1.992c.348 0 .658.073.93.22.273.142.488.356.645.645s.237.64.237 1.053v2.637h-.735V53.41c0-.446-.111-.786-.334-1.02-.218-.239-.515-.359-.89-.359-.387 0-.694.125-.923.376-.228.245-.342.601-.342 1.069v2.465h-.735V53.41c0-.446-.112-.786-.335-1.02-.218-.239-.514-.359-.89-.359-.386 0-.694.125-.922.376-.229.245-.343.601-.343 1.069v2.465h-.743v-4.474h.743v.645c.147-.234.343-.414.588-.539s.525-.188.824-.188c.376 0 .708.084.996.253s.504.416.645.743c.125-.316.332-.561.621-.735s.609-.261.963-.261zm7.113 2.147c0 .142-.009.291-.025.449h-3.576c.028.441.177.786.449 1.037.278.245.613.367 1.005.367.321 0 .587-.073.8-.22.217-.152.37-.354.457-.604h.8a1.94 1.94 0 0 1-.719 1.053c-.359.267-.805.4-1.338.4-.425 0-.806-.095-1.143-.286s-.594-.46-.784-.808c-.191-.354-.286-.762-.286-1.225s.093-.868.278-1.216.443-.615.775-.8a2.32 2.32 0 0 1 1.16-.286c.424 0 .8.093 1.126.278s.577.441.751.767c.18.321.27.686.27 1.094zm-.768-.155c0-.283-.062-.525-.188-.727a1.18 1.18 0 0 0-.514-.465 1.53 1.53 0 0 0-.71-.163c-.376 0-.697.12-.963.359s-.411.572-.449.996h2.824zm3.928-1.992c.544 0 .985.166 1.322.498.338.327.507.8.507 1.42v2.637h-.735V53.41c0-.446-.112-.786-.335-1.02-.223-.239-.528-.359-.914-.359-.392 0-.705.122-.939.367s-.343.601-.343 1.069v2.474h-.743v-4.474h.743v.637c.147-.229.346-.405.596-.531.256-.125.536-.188.841-.188zm3.948.694v2.637c0 .218.047.373.139.465.093.087.253.131.482.131h.547v.629h-.67c-.413 0-.724-.095-.93-.286s-.311-.503-.311-.939V52.08h-.579v-.612h.579v-1.127h.743v1.127h1.168v.612h-1.168zm3.652 3.935c-.343 0-.651-.057-.923-.171-.272-.12-.487-.283-.645-.49a1.32 1.32 0 0 1-.261-.727h.767c.022.223.125.405.31.547.191.142.439.212.743.212.283 0 .507-.063.67-.188s.245-.283.245-.474c0-.196-.087-.34-.262-.433-.174-.098-.443-.193-.808-.286-.332-.087-.604-.174-.816-.261-.207-.093-.387-.226-.539-.4-.147-.18-.22-.414-.22-.702a1.06 1.06 0 0 1 .204-.629c.136-.191.329-.34.579-.449.251-.114.536-.171.858-.171.495 0 .895.125 1.2.376s.468.593.489 1.029h-.742c-.017-.234-.112-.422-.286-.563s-.397-.212-.686-.212c-.267 0-.479.057-.637.171a.53.53 0 0 0-.236.449c0 .147.046.269.138.367.098.093.218.169.36.229.147.054.348.117.604.188.321.087.582.174.783.261a1.3 1.3 0 0 1 .515.375c.147.169.223.389.228.661a1.13 1.13 0 0 1-.204.661c-.136.196-.329.351-.579.465-.245.109-.528.163-.849.163z" class="H"/><rect x="149.586" y="49.662" width="6.799" height="6.803" rx="3.4" class="C"/><path d="M163.943 53.01a1.18 1.18 0 0 1 .563.253c.174.136.31.305.408.506.103.201.155.416.155.645 0 .288-.073.55-.22.784a1.53 1.53 0 0 1-.645.547c-.278.131-.607.196-.988.196h-2.123v-5.69h2.041c.387 0 .716.065.988.196.272.125.476.297.612.514a1.35 1.35 0 0 1 .205.735c0 .337-.093.618-.278.841a1.52 1.52 0 0 1-.718.473zm-2.107-.302h1.249c.349 0 .618-.082.809-.245s.285-.389.285-.678-.095-.514-.285-.678-.466-.245-.825-.245h-1.233v1.845zm1.315 2.621c.37 0 .658-.087.865-.261s.31-.416.31-.727c0-.316-.109-.563-.326-.743-.218-.185-.509-.278-.874-.278h-1.29v2.008h1.315zm6.917-3.861v4.474h-.743v-.661a1.47 1.47 0 0 1-.596.539c-.251.125-.528.188-.833.188a2.04 2.04 0 0 1-.939-.212c-.277-.147-.498-.365-.661-.653-.158-.288-.237-.639-.237-1.053v-2.62h.735v2.523c0 .441.112.781.335 1.02.223.234.528.351.914.351.397 0 .71-.122.939-.367s.343-.601.343-1.069v-2.457h.743zm1.638-.727a.49.49 0 0 1-.36-.147c-.098-.098-.146-.218-.146-.359s.048-.261.146-.359a.49.49 0 0 1 .36-.147c.136 0 .25.049.343.147s.146.218.146.359-.048.261-.146.359-.207.147-.343.147zm.359.727v4.474h-.743v-4.474h.743zm2.009-1.568v6.041h-.743V49.9h.743zm.988 3.788c0-.457.093-.857.278-1.2.185-.348.438-.618.759-.808a2.13 2.13 0 0 1 1.094-.286 2 2 0 0 1 .972.245c.299.158.528.367.685.629V49.9h.751v6.041h-.751V55.1c-.147.267-.364.487-.653.661-.288.169-.626.253-1.012.253-.397 0-.759-.098-1.086-.294a2.06 2.06 0 0 1-.759-.825c-.185-.354-.278-.757-.278-1.208zm3.788.008c0-.337-.068-.631-.204-.882s-.321-.441-.555-.572c-.228-.136-.481-.204-.759-.204a1.5 1.5 0 0 0-.759.196 1.42 1.42 0 0 0-.547.572 1.82 1.82 0 0 0-.204.882c0 .343.068.642.204.898.136.25.318.444.547.58a1.5 1.5 0 0 0 .759.196 1.5 1.5 0 0 0 .759-.196 1.46 1.46 0 0 0 .555-.58c.136-.256.204-.552.204-.89zm2.391-2.955a.49.49 0 0 1-.507-.506.49.49 0 0 1 .507-.506.45.45 0 0 1 .342.147.49.49 0 0 1 .147.359.49.49 0 0 1-.147.359.45.45 0 0 1-.342.147zm.359.727v4.474h-.743v-4.474h.743zm3.446-.082c.544 0 .985.166 1.322.498.338.327.506.8.506 1.42v2.637h-.734V53.41c0-.446-.112-.786-.335-1.02-.223-.239-.528-.359-.914-.359-.392 0-.705.122-.939.367-.229.245-.343.601-.343 1.069v2.474h-.743v-4.474h.743v.637c.147-.229.345-.405.596-.531s.536-.188.841-.188zm4.887.008c.386 0 .724.084 1.012.253.294.169.512.381.653.637v-.816h.751v4.572c0 .408-.087.77-.261 1.086-.174.321-.424.572-.751.751-.321.18-.697.269-1.127.269-.587 0-1.077-.139-1.469-.416s-.623-.656-.694-1.135h.735c.081.272.25.49.506.653.256.169.563.253.922.253.409 0 .741-.128.996-.384.262-.256.392-.615.392-1.078V55.1c-.147.261-.364.479-.653.653s-.626.261-1.012.261c-.397 0-.759-.098-1.086-.294a2.06 2.06 0 0 1-.759-.825c-.185-.354-.278-.757-.278-1.208 0-.457.093-.857.278-1.2.185-.348.438-.618.759-.808.327-.191.689-.286 1.086-.286zm1.665 2.302c0-.337-.068-.631-.204-.882s-.321-.441-.555-.572a1.46 1.46 0 0 0-.759-.204 1.5 1.5 0 0 0-.759.196 1.42 1.42 0 0 0-.547.572 1.82 1.82 0 0 0-.205.882c0 .343.069.642.205.898.136.25.318.444.547.58a1.5 1.5 0 0 0 .759.196c.277 0 .53-.065.759-.196a1.46 1.46 0 0 0 .555-.58c.136-.256.204-.552.204-.89zm3.59 2.319c-.342 0-.65-.057-.922-.171-.272-.12-.487-.283-.645-.49a1.32 1.32 0 0 1-.261-.727h.767c.022.223.125.405.31.547.191.142.438.212.743.212.283 0 .506-.063.67-.188s.245-.283.245-.474c0-.196-.087-.34-.262-.433-.174-.098-.443-.193-.808-.286-.332-.087-.604-.174-.816-.261-.207-.093-.387-.226-.539-.4-.147-.18-.22-.414-.22-.702a1.06 1.06 0 0 1 .204-.629c.136-.191.329-.34.579-.449.251-.114.536-.171.857-.171.496 0 .896.125 1.201.376s.468.593.489 1.029h-.743a.76.76 0 0 0-.285-.563c-.169-.142-.398-.212-.686-.212-.267 0-.479.057-.637.171a.53.53 0 0 0-.237.449c0 .147.047.269.139.367a1.2 1.2 0 0 0 .359.229c.147.054.349.117.605.188.321.087.582.174.783.261a1.3 1.3 0 0 1 .515.375c.147.169.223.389.228.661a1.13 1.13 0 0 1-.204.661c-.136.196-.329.351-.58.465-.244.109-.527.163-.849.163z" class="H"/><rect x="77.513" y="49.662" width="6.799" height="6.803" rx="3.4" class="D"/><path d="M92.522 50.251v.604h-1.551v5.086h-.743v-5.086h-1.559v-.604h3.853zm4.996 3.282c0 .142-.008.291-.024.449h-3.576c.027.441.177.786.449 1.037.278.245.612.367 1.004.367.321 0 .588-.073.8-.22a1.2 1.2 0 0 0 .457-.604h.8a1.94 1.94 0 0 1-.718 1.053c-.359.267-.805.4-1.339.4-.425 0-.806-.095-1.143-.286-.332-.191-.593-.46-.784-.808-.19-.354-.286-.762-.286-1.225s.093-.868.278-1.216a1.93 1.93 0 0 1 .776-.8c.337-.191.724-.286 1.159-.286.424 0 .8.093 1.127.278s.577.441.751.767c.18.321.269.686.269 1.094zm-.767-.155c0-.283-.062-.525-.188-.727a1.18 1.18 0 0 0-.514-.465c-.212-.109-.449-.163-.71-.163a1.39 1.39 0 0 0-.963.359c-.261.239-.411.572-.449.996h2.825zm1.471.318c0-.463.093-.865.278-1.208a2 2 0 0 1 .767-.808c.332-.191.71-.286 1.134-.286.55 0 1.002.133 1.356.4a1.88 1.88 0 0 1 .71 1.11h-.8a1.14 1.14 0 0 0-.449-.645c-.218-.158-.49-.237-.817-.237-.424 0-.767.147-1.028.441-.261.288-.392.699-.392 1.233 0 .539.131.955.392 1.249s.604.441 1.028.441c.327 0 .599-.076.817-.229s.367-.37.449-.653h.8c-.12.457-.359.825-.719 1.102-.359.272-.808.408-1.347.408-.424 0-.802-.095-1.134-.286a2 2 0 0 1-.767-.808c-.185-.348-.278-.756-.278-1.225zm7.457-2.31c.337 0 .642.073.914.22.272.142.484.356.637.645s.236.64.236 1.053v2.637h-.734V53.41c0-.446-.112-.786-.335-1.02-.223-.239-.528-.359-.914-.359-.392 0-.705.122-.939.367-.229.245-.343.601-.343 1.069v2.474h-.743V49.9h.743v2.204c.147-.229.348-.405.604-.531s.553-.188.874-.188zm5.181 0c.544 0 .985.166 1.322.498.338.327.506.8.506 1.42v2.637h-.734V53.41c0-.446-.112-.786-.335-1.02-.223-.239-.528-.359-.914-.359-.392 0-.705.122-.939.367s-.343.601-.343 1.069v2.474h-.743v-4.474h.743v.637c.147-.229.346-.405.596-.531.256-.125.536-.188.841-.188zm4.993 4.629c-.419 0-.8-.095-1.143-.286a2.08 2.08 0 0 1-.8-.808c-.19-.354-.286-.762-.286-1.225 0-.457.098-.86.294-1.208a2.05 2.05 0 0 1 .817-.808c.342-.191.726-.286 1.151-.286a2.33 2.33 0 0 1 1.151.286c.343.185.612.452.808.8a2.39 2.39 0 0 1 .302 1.216c0 .463-.103.871-.31 1.225-.202.348-.476.618-.825.808s-.734.286-1.159.286zm0-.653c.267 0 .517-.062.751-.188a1.4 1.4 0 0 0 .563-.563c.147-.25.221-.555.221-.914s-.071-.664-.212-.914-.327-.435-.556-.555a1.52 1.52 0 0 0-.742-.188 1.54 1.54 0 0 0-.752.188c-.223.12-.402.305-.538.555s-.204.555-.204.914c0 .365.065.672.195.922.137.25.316.438.539.563a1.53 1.53 0 0 0 .735.18zm4.014-5.462v6.041h-.743V49.9h.743zm3.217 6.115c-.419 0-.8-.095-1.143-.286a2.08 2.08 0 0 1-.8-.808c-.191-.354-.286-.762-.286-1.225 0-.457.098-.86.294-1.208a2.05 2.05 0 0 1 .817-.808c.342-.191.726-.286 1.151-.286a2.33 2.33 0 0 1 1.151.286c.343.185.612.452.808.8a2.39 2.39 0 0 1 .302 1.216c0 .463-.103.871-.31 1.225a2.11 2.11 0 0 1-.825.808c-.348.191-.735.286-1.159.286zm0-.653c.267 0 .517-.062.751-.188a1.4 1.4 0 0 0 .563-.563c.147-.25.221-.555.221-.914s-.071-.664-.213-.914-.326-.435-.555-.555a1.52 1.52 0 0 0-.743-.188 1.54 1.54 0 0 0-.751.188c-.223.12-.402.305-.538.555s-.205.555-.205.914c0 .365.066.672.196.922.136.25.316.438.539.563a1.53 1.53 0 0 0 .735.18zm5.116-3.968c.386 0 .724.084 1.012.253.294.169.512.381.653.637v-.816h.751v4.572c0 .408-.087.77-.261 1.086a1.85 1.85 0 0 1-.751.751c-.321.18-.697.269-1.127.269-.588 0-1.077-.139-1.469-.416s-.623-.656-.694-1.135h.735c.081.272.25.49.506.653.256.169.563.253.922.253.408 0 .74-.128.996-.384s.392-.615.392-1.078V55.1c-.147.261-.365.479-.653.653s-.626.261-1.012.261c-.398 0-.76-.098-1.086-.294a2.06 2.06 0 0 1-.759-.825c-.185-.354-.278-.757-.278-1.208 0-.457.093-.857.278-1.2.185-.348.438-.618.759-.808s.688-.286 1.086-.286zm1.665 2.302c0-.337-.068-.631-.204-.882s-.321-.441-.555-.572a1.46 1.46 0 0 0-.759-.204c-.278 0-.531.065-.76.196s-.41.321-.547.572a1.82 1.82 0 0 0-.204.882c0 .343.068.642.204.898a1.49 1.49 0 0 0 .547.58c.229.131.482.196.76.196s.53-.065.759-.196a1.46 1.46 0 0 0 .555-.58c.136-.256.204-.552.204-.89zm5.86-2.229l-2.694 6.58h-.768l.882-2.155-1.804-4.425h.824l1.405 3.625 1.387-3.625h.768z" class="H"/><rect x="18.358" y="49.662" width="6.799" height="6.803" rx="3.4" class="E"/><path d="M34.568 50.251l-2.147 5.69h-.857l-2.147-5.69h.792l1.788 4.906 1.788-4.906h.784zm4.896 3.282c0 .142-.008.291-.024.449h-3.576c.027.441.177.786.449 1.037.278.245.612.367 1.004.367.321 0 .588-.073.8-.22a1.2 1.2 0 0 0 .457-.604h.8a1.94 1.94 0 0 1-.718 1.053c-.359.267-.805.4-1.339.4-.425 0-.806-.095-1.143-.286-.332-.191-.593-.46-.784-.808-.191-.354-.286-.762-.286-1.225s.092-.868.278-1.216a1.93 1.93 0 0 1 .775-.8c.338-.191.724-.286 1.159-.286.425 0 .8.093 1.127.278s.577.441.751.767c.18.321.269.686.269 1.094zm-.767-.155a1.35 1.35 0 0 0-.188-.727 1.18 1.18 0 0 0-.514-.465c-.212-.109-.449-.163-.71-.163a1.39 1.39 0 0 0-.963.359c-.261.239-.411.572-.449.996h2.825zm3.968-1.992c.337 0 .642.073.914.22.272.142.484.356.637.645.158.288.237.64.237 1.053v2.637h-.735V53.41c0-.446-.111-.786-.335-1.02-.223-.239-.528-.359-.914-.359-.392 0-.705.122-.939.367-.229.245-.343.601-.343 1.069v2.474h-.743V49.9h.743v2.204a1.47 1.47 0 0 1 .604-.531c.261-.125.552-.188.874-.188zm3.385-.645a.49.49 0 0 1-.506-.506.49.49 0 0 1 .506-.506c.136 0 .25.049.343.147a.49.49 0 0 1 .147.359.49.49 0 0 1-.147.359c-.093.098-.207.147-.343.147zm.359.727v4.474h-.743v-4.474h.743zm.989 2.229c0-.463.093-.865.277-1.208a2 2 0 0 1 .767-.808c.332-.191.71-.286 1.135-.286.55 0 1.001.133 1.355.4a1.88 1.88 0 0 1 .71 1.11h-.8a1.14 1.14 0 0 0-.449-.645c-.218-.158-.49-.237-.816-.237-.425 0-.767.147-1.029.441-.261.288-.392.699-.392 1.233 0 .539.131.955.392 1.249s.604.441 1.029.441c.327 0 .599-.076.816-.229s.367-.37.449-.653h.8c-.12.457-.359.825-.718 1.102-.359.272-.808.408-1.347.408-.425 0-.803-.095-1.135-.286a2 2 0 0 1-.767-.808c-.185-.348-.277-.756-.277-1.225zm5.979-3.796v6.041h-.743V49.9h.743zm5.348 3.633a4.38 4.38 0 0 1-.024.449h-3.576c.027.441.177.786.449 1.037.278.245.612.367 1.004.367.321 0 .588-.073.8-.22a1.2 1.2 0 0 0 .457-.604h.8a1.94 1.94 0 0 1-.718 1.053c-.359.267-.806.4-1.339.4-.425 0-.806-.095-1.143-.286-.332-.191-.593-.46-.784-.808-.191-.354-.286-.762-.286-1.225s.093-.868.278-1.216a1.93 1.93 0 0 1 .776-.8c.337-.191.724-.286 1.159-.286.425 0 .8.093 1.127.278s.577.441.751.767c.18.321.269.686.269 1.094zm-.767-.155a1.35 1.35 0 0 0-.188-.727 1.18 1.18 0 0 0-.514-.465c-.212-.109-.449-.163-.71-.163a1.39 1.39 0 0 0-.963.359c-.261.239-.411.572-.449.996h2.825zm3.332 2.637c-.343 0-.65-.057-.922-.171-.272-.12-.487-.283-.645-.49-.158-.212-.245-.455-.261-.727h.767c.022.223.125.405.31.547.191.142.438.212.743.212.283 0 .506-.063.669-.188s.245-.283.245-.474c0-.196-.087-.34-.261-.433-.174-.098-.444-.193-.808-.286-.332-.087-.604-.174-.816-.261a1.55 1.55 0 0 1-.539-.4c-.147-.18-.22-.414-.22-.702 0-.229.068-.438.204-.629s.329-.34.58-.449c.25-.114.536-.171.857-.171.495 0 .895.125 1.2.376s.468.593.49 1.029h-.743a.76.76 0 0 0-.286-.563c-.169-.142-.397-.212-.686-.212-.267 0-.479.057-.637.171a.53.53 0 0 0-.237.449c0 .147.046.269.139.367.098.093.218.169.359.229.147.054.348.117.604.188.321.087.582.174.784.261a1.3 1.3 0 0 1 .514.375c.147.169.223.389.229.661a1.13 1.13 0 0 1-.204.661c-.136.196-.329.351-.58.465-.245.109-.528.163-.849.163z" class="H"/><path opacity=".5" d="M42.156 231.985h363.086v.68H42.156zm0-31.294h363.086v.68H42.156zm0-31.295h363.086v.68H42.156zm0-31.294h363.086v.68H42.156zm0-31.294h363.086v.68H42.156zm0-30.613h363.086v.68H42.156z" fill="#e2e2ea"/><g fill="#444"><path d="M20.82 232.352c0-.78.127-1.388.381-1.823s.698-.66 1.333-.66 1.073.22 1.327.66.381 1.043.381 1.823c0 .793-.127 1.41-.381 1.85s-.696.66-1.327.66-1.079-.22-1.333-.66-.381-1.057-.381-1.85zm2.81 0c0-.395-.027-.728-.082-1s-.157-.499-.32-.667-.39-.252-.694-.252-.544.084-.707.252-.265.39-.32.667c-.05.272-.075.605-.075 1a5.91 5.91 0 0 0 .075 1.027c.05.277.161.499.32.667s.399.251.707.251.535-.083.694-.251.27-.39.32-.667.082-.619.082-1.027zm-2.973-64.432v-.565h1.279v4.919h-.626v-4.354h-.653zm2.342 1.843c0-.78.127-1.387.381-1.823s.699-.66 1.333-.66 1.073.22 1.327.66.381 1.043.381 1.823c0 .794-.127 1.411-.381 1.851s-.696.66-1.327.66-1.079-.22-1.333-.66-.381-1.057-.381-1.851zm2.81 0a5.21 5.21 0 0 0-.082-1c-.05-.276-.156-.498-.32-.666s-.39-.252-.694-.252-.544.084-.707.252-.265.39-.32.666a5.68 5.68 0 0 0-.075 1c0 .409.025.751.075 1.028s.161.499.32.666.399.252.707.252.535-.084.694-.252.27-.39.32-.666.082-.619.082-1.028zm1.462 0c0-.78.127-1.387.381-1.823s.698-.66 1.333-.66 1.073.22 1.327.66.381 1.043.381 1.823c0 .794-.127 1.411-.381 1.851s-.696.66-1.327.66-1.08-.22-1.333-.66-.381-1.057-.381-1.851zm2.81 0a5.21 5.21 0 0 0-.082-1c-.05-.276-.156-.498-.32-.666s-.39-.252-.694-.252-.544.084-.708.252-.265.39-.32.666a5.67 5.67 0 0 0-.075 1c0 .409.025.751.075 1.028s.161.499.32.666.399.252.708.252.535-.084.694-.252.27-.39.32-.666.082-.619.082-1.028zm3.646 2.511l-1.463-1.647v1.647h-.619v-5.034h.619v2.959l1.435-1.653h.864l-1.755 1.857 1.762 1.871h-.844zm-9.771 26.913h-2.388v1.551c.104-.145.259-.263.463-.354s.424-.143.66-.143c.376 0 .683.08.918.238s.404.356.503.606a2.09 2.09 0 0 1 .157.782 2.02 2.02 0 0 1-.184.878 1.39 1.39 0 0 1-.565.612c-.249.15-.56.224-.932.224-.476 0-.862-.122-1.156-.367a1.53 1.53 0 0 1-.537-.98h.605c.059.259.184.461.374.606s.431.218.721.218c.358 0 .628-.107.81-.32s.272-.504.272-.857-.091-.626-.272-.817-.449-.292-.803-.292c-.24 0-.451.059-.633.177a.99.99 0 0 0-.388.469h-.585v-2.776h2.959v.545zm1.136 1.871c0-.781.127-1.388.381-1.824s.699-.66 1.334-.66 1.073.22 1.326.66.381 1.043.381 1.824c0 .793-.127 1.41-.381 1.85s-.696.66-1.326.66-1.079-.22-1.334-.66-.381-1.057-.381-1.85zm2.81 0c0-.395-.027-.728-.082-1.001s-.157-.498-.32-.666-.39-.252-.694-.252-.544.084-.708.252-.265.39-.32.666-.075.606-.075 1.001a5.91 5.91 0 0 0 .075 1.027c.05.277.161.499.32.667s.399.251.708.251.535-.084.694-.251a1.25 1.25 0 0 0 .32-.667c.054-.277.082-.619.082-1.027zm3.646 2.51l-1.463-1.646v1.646h-.619v-5.034h.619v2.959l1.435-1.653h.864l-1.755 1.857 1.762 1.871h-.844zm-10.803-63.765l1.354-1.136a5.57 5.57 0 0 0 .823-.932c.227-.327.34-.647.34-.96 0-.294-.072-.526-.218-.694s-.37-.258-.687-.258c-.308 0-.549.097-.721.292s-.259.447-.272.769h-.599c.018-.508.172-.9.463-1.177s.664-.415 1.122-.415c.467 0 .837.13 1.109.388s.415.615.415 1.068c0 .377-.113.744-.34 1.102a4.85 4.85 0 0 1-.762.939l-1.095.939h2.34v.517h-3.272v-.442zm7.124-3.885h-2.388v1.551c.104-.145.259-.263.463-.354s.424-.142.66-.142c.376 0 .683.079.918.238a1.28 1.28 0 0 1 .503.605 1.98 1.98 0 0 1 .157.783c0 .326-.061.619-.184.877a1.38 1.38 0 0 1-.565.612c-.249.15-.56.225-.932.225-.476 0-.862-.123-1.156-.367a1.53 1.53 0 0 1-.537-.98h.605c.059.258.184.46.374.605s.431.218.721.218c.358 0 .628-.106.81-.32s.272-.503.272-.857-.091-.626-.272-.816-.449-.293-.803-.293c-.24 0-.451.059-.633.177a.99.99 0 0 0-.388.47h-.585v-2.776h2.959v.544zm1.136 1.871c0-.78.127-1.388.381-1.823s.698-.66 1.333-.66 1.073.22 1.327.66.381 1.043.381 1.823c0 .794-.127 1.41-.381 1.85s-.696.66-1.327.66-1.079-.22-1.333-.66-.381-1.056-.381-1.85zm2.81 0c0-.395-.027-.728-.082-1s-.157-.499-.32-.667-.39-.251-.694-.251-.544.083-.707.251-.265.39-.32.667-.075.605-.075 1c0 .408.025.751.075 1.027s.161.499.32.667.399.252.707.252.535-.084.694-.252.27-.39.32-.667.082-.619.082-1.027zm3.646 2.51l-1.463-1.646v1.646h-.619v-5.034h.619v2.959l1.435-1.653h.864l-1.755 1.857 1.762 1.871h-.844zm-11.505-34.995h-2.388v1.551c.104-.145.259-.263.463-.353a1.53 1.53 0 0 1 .66-.143c.376 0 .683.079.918.238a1.28 1.28 0 0 1 .503.605 1.98 1.98 0 0 1 .157.783c0 .326-.061.619-.184.877a1.39 1.39 0 0 1-.565.613c-.249.149-.56.224-.932.224-.476 0-.862-.122-1.156-.367s-.474-.572-.537-.98h.605a1.02 1.02 0 0 0 .374.606c.19.146.431.217.721.217.358 0 .628-.106.81-.319s.272-.504.272-.858-.091-.625-.272-.816-.449-.293-.803-.293c-.24 0-.451.059-.633.177a.99.99 0 0 0-.388.47h-.585v-2.776h2.959v.544zm1.136 1.871c0-.78.127-1.388.381-1.823s.699-.66 1.334-.66 1.073.22 1.326.66.381 1.043.381 1.823c0 .794-.127 1.411-.381 1.851s-.696.66-1.326.66-1.079-.22-1.334-.66-.381-1.057-.381-1.851zm2.81 0c0-.394-.027-.728-.082-1a1.25 1.25 0 0 0-.32-.667c-.159-.167-.39-.251-.694-.251s-.544.084-.708.251-.265.391-.32.667-.075.606-.075 1c0 .408.025.751.075 1.027s.161.499.32.667.399.252.708.252.535-.084.694-.252.27-.39.32-.667.082-.619.082-1.027zm1.462 0c0-.78.127-1.388.381-1.823s.698-.66 1.333-.66 1.073.22 1.327.66.381 1.043.381 1.823c0 .794-.127 1.411-.381 1.851s-.696.66-1.327.66-1.079-.22-1.333-.66-.381-1.057-.381-1.851zm2.81 0c0-.394-.027-.728-.082-1s-.156-.499-.32-.667-.39-.251-.694-.251-.544.084-.707.251-.265.391-.32.667-.075.606-.075 1c0 .408.025.751.075 1.027s.161.499.32.667.399.252.707.252.535-.084.694-.252.27-.39.32-.667.082-.619.082-1.027zm3.646 2.511l-1.463-1.647v1.647h-.619v-5.035h.619v2.96l1.435-1.654h.864l-1.755 1.858 1.762 1.871h-.843zM18.617 74.718v-.565h1.279v4.919h-.626v-4.354h-.653zm2.342 1.844c0-.78.127-1.388.381-1.823s.698-.66 1.333-.66 1.073.22 1.327.66.381 1.043.381 1.823c0 .794-.127 1.41-.381 1.85s-.696.66-1.327.66-1.079-.22-1.333-.66-.381-1.057-.381-1.85zm2.81 0c0-.395-.027-.728-.082-1s-.156-.499-.32-.667-.39-.252-.694-.252-.544.084-.707.252-.265.39-.32.667-.075.605-.075 1c0 .408.025.751.075 1.027s.161.499.32.667.399.252.707.252.535-.084.694-.252.27-.39.32-.667.082-.619.082-1.027zm1.462 0c0-.78.127-1.388.381-1.823s.698-.66 1.333-.66 1.073.22 1.327.66.381 1.043.381 1.823c0 .794-.127 1.41-.381 1.85s-.696.66-1.327.66-1.079-.22-1.333-.66-.381-1.057-.381-1.85zm2.81 0a5.2 5.2 0 0 0-.082-1c-.05-.277-.156-.499-.32-.667s-.39-.252-.694-.252-.544.084-.707.252-.265.39-.32.667-.075.605-.075 1a5.92 5.92 0 0 0 .075 1.027c.054.277.161.499.32.667s.399.252.707.252.535-.084.694-.252.27-.39.32-.667.082-.619.082-1.027zm1.462 0c0-.78.127-1.388.381-1.823s.698-.66 1.333-.66 1.073.22 1.327.66.381 1.043.381 1.823c0 .794-.127 1.41-.381 1.85s-.696.66-1.327.66-1.08-.22-1.333-.66-.381-1.057-.381-1.85zm2.81 0c0-.395-.027-.728-.082-1s-.156-.499-.32-.667-.39-.252-.694-.252-.544.084-.708.252-.265.39-.32.667-.075.605-.075 1c0 .408.025.751.075 1.027s.161.499.32.667.399.252.708.252.535-.084.694-.252.27-.39.32-.667.082-.619.082-1.027zm3.646 2.51l-1.463-1.646v1.646h-.619v-5.034h.619v2.959l1.435-1.653h.864l-1.755 1.857 1.762 1.871h-.844zm21.348 165.335v3.503c0 .39-.12.703-.361.939s-.558.347-.953.347-.719-.118-.959-.354-.361-.567-.361-.979h.619c.005.231.063.419.177.564s.292.218.524.218.404-.068.517-.204a.82.82 0 0 0 .17-.531v-3.503h.626zm.988 2.864c0-.381.077-.715.231-1a1.68 1.68 0 0 1 .633-.674 1.76 1.76 0 0 1 .905-.238 1.65 1.65 0 0 1 .85.211c.24.141.419.317.538.531v-.681h.626v3.728h-.626v-.693a1.48 1.48 0 0 1-.551.544c-.24.14-.522.211-.844.211-.331 0-.63-.082-.898-.245s-.478-.393-.633-.687a2.13 2.13 0 0 1-.231-1.007zm3.157.007c0-.282-.057-.527-.17-.735s-.268-.368-.463-.476a1.21 1.21 0 0 0-.633-.17 1.25 1.25 0 0 0-.633.163c-.191.109-.342.267-.456.476s-.17.454-.17.735.057.535.17.748.265.37.456.483a1.25 1.25 0 0 0 .633.163 1.25 1.25 0 0 0 .633-.163c.195-.113.349-.274.463-.483s.17-.46.17-.741zm3.488-1.926c.454 0 .821.139 1.102.415s.422.667.422 1.184v2.197h-.612v-2.109c0-.371-.093-.655-.279-.85s-.44-.299-.762-.299-.587.102-.782.306-.286.501-.286.891v2.061h-.619v-3.728h.619v.531a1.23 1.23 0 0 1 .497-.442c.209-.104.447-.157.701-.157zm47.054-.945v.503h-2.061v1.599h1.674v.503h-1.674v2.136h-.619v-4.741h2.68zm4.15 2.735a3.56 3.56 0 0 1-.021.374h-2.98c.023.367.148.655.375.864a1.22 1.22 0 0 0 .836.306c.268 0 .49-.061.667-.184a1.01 1.01 0 0 0 .381-.503h.667a1.62 1.62 0 0 1-.599.877c-.299.223-.671.334-1.116.334a1.91 1.91 0 0 1-.952-.238 1.7 1.7 0 0 1-.653-.674c-.159-.295-.238-.635-.238-1.02s.077-.724.231-1.014a1.61 1.61 0 0 1 .646-.667c.281-.159.603-.238.966-.238.354 0 .667.077.939.231a1.58 1.58 0 0 1 .626.64c.15.268.225.571.225.912zm-.64-.13c0-.236-.052-.437-.156-.605-.105-.173-.248-.302-.429-.388s-.374-.136-.592-.136c-.313 0-.58.1-.803.299-.217.2-.342.477-.374.83h2.354zm2.076-.898c.127-.222.313-.403.558-.544s.523-.211.836-.211c.336 0 .638.079.905.238a1.68 1.68 0 0 1 .633.674c.154.285.231.619.231 1a2.13 2.13 0 0 1-.231 1.007 1.7 1.7 0 0 1-.64.687 1.69 1.69 0 0 1-.898.245c-.322 0-.605-.071-.85-.211a1.44 1.44 0 0 1-.544-.538v.687h-.619v-5.034h.619v2zm2.531 1.157c0-.281-.057-.526-.171-.735a1.17 1.17 0 0 0-.462-.476c-.195-.109-.402-.163-.633-.163a1.23 1.23 0 0 0-.633.17c-.19.108-.344.27-.462.483s-.17.451-.17.728.056.528.17.741a1.28 1.28 0 0 0 .462.483c.195.109.406.163.633.163s.442-.054.633-.163a1.21 1.21 0 0 0 .462-.483c.114-.213.171-.462.171-.748z"/><path d="M167.838 244.441v4.707h-.619v-3.51l-1.564 3.51h-.436l-1.571-3.517v3.517h-.619v-4.707h.666l1.742 3.891 1.742-3.891h.659zm.819 2.83c0-.381.077-.715.231-1a1.68 1.68 0 0 1 .633-.674 1.76 1.76 0 0 1 .905-.238c.326 0 .61.07.85.211a1.4 1.4 0 0 1 .538.531v-.681h.626v3.728h-.626v-.693c-.123.217-.306.399-.551.544a1.65 1.65 0 0 1-.844.211c-.331 0-.63-.082-.898-.245a1.73 1.73 0 0 1-.633-.687c-.154-.295-.231-.631-.231-1.007zm3.157.007c0-.282-.057-.527-.17-.735s-.268-.368-.463-.476c-.19-.114-.401-.17-.633-.17s-.442.054-.632.163-.343.267-.456.476-.17.454-.17.735.056.535.17.748a1.22 1.22 0 0 0 .456.483c.19.109.401.163.632.163a1.25 1.25 0 0 0 .633-.163c.195-.113.349-.274.463-.483s.17-.46.17-.741zm2.291-1.252a1.2 1.2 0 0 1 .462-.497c.205-.118.452-.177.742-.177v.64h-.163c-.694 0-1.041.376-1.041 1.129v2.027h-.619v-3.728h.619v.606zm46.801 2.068h-2.068l-.381 1.054h-.653l1.714-4.714h.715l1.707 4.714h-.653l-.381-1.054zm-.177-.503l-.857-2.395-.857 2.395h1.714zm2.578-1.484c.122-.213.303-.39.544-.53s.528-.218.85-.218c.331 0 .631.079.898.238s.486.383.64.674c.154.285.231.619.231 1a2.13 2.13 0 0 1-.231 1.007 1.71 1.71 0 0 1-.64.687 1.69 1.69 0 0 1-.898.245 1.67 1.67 0 0 1-.843-.211c-.241-.145-.424-.325-.551-.538v2.456h-.619v-5.497h.619v.687zm2.53 1.164c0-.281-.056-.526-.17-.735a1.17 1.17 0 0 0-.462-.476c-.195-.109-.402-.163-.633-.163a1.23 1.23 0 0 0-.633.17c-.19.108-.344.27-.462.483s-.17.451-.17.728.056.528.17.741a1.28 1.28 0 0 0 .462.483c.195.109.406.163.633.163s.442-.054.633-.163a1.21 1.21 0 0 0 .462-.483c.114-.213.17-.462.17-.748zm2.067-1.245c.109-.213.263-.379.463-.497s.451-.177.741-.177v.64h-.163c-.694 0-1.041.376-1.041 1.129v2.027h-.619v-3.728h.619v.606zm48.725-1.585v4.707h-.62v-3.51l-1.564 3.51h-.436l-1.571-3.517v3.517h-.619v-4.707h.666l1.742 3.891 1.742-3.891h.66zm.818 2.83c0-.381.077-.715.231-1a1.69 1.69 0 0 1 .633-.674 1.76 1.76 0 0 1 .905-.238c.326 0 .61.07.85.211a1.4 1.4 0 0 1 .538.531v-.681h.626v3.728h-.626v-.693c-.123.217-.306.399-.551.544a1.65 1.65 0 0 1-.844.211c-.331 0-.63-.082-.898-.245s-.478-.393-.633-.687a2.13 2.13 0 0 1-.231-1.007zm3.157.007c0-.282-.057-.527-.17-.735s-.268-.368-.463-.476c-.19-.114-.401-.17-.633-.17s-.442.054-.632.163-.343.267-.456.476-.17.454-.17.735.057.535.17.748a1.22 1.22 0 0 0 .456.483c.19.109.401.163.632.163a1.25 1.25 0 0 0 .633-.163c.195-.113.349-.274.463-.483s.17-.46.17-.741zm4.883-1.858l-2.245 5.484h-.64l.735-1.796-1.503-3.688h.687l1.17 3.021 1.156-3.021h.64zm41.754-1.013v3.503c0 .39-.12.703-.36.939s-.558.347-.953.347-.719-.118-.959-.354-.36-.567-.36-.979h.619c.004.231.063.419.176.564s.293.218.524.218.404-.068.517-.204.17-.318.17-.531v-3.503h.626zm4.526 1.013v3.728h-.619v-.551c-.118.191-.283.341-.496.449s-.44.157-.694.157a1.7 1.7 0 0 1-.783-.177c-.231-.122-.415-.304-.551-.544s-.197-.533-.197-.878v-2.184h.612v2.103c0 .367.093.65.279.85s.44.292.762.292c.331 0 .592-.102.782-.306s.286-.501.286-.891v-2.048h.619zm2.862-.068c.453 0 .821.139 1.102.415s.422.667.422 1.184v2.197h-.612v-2.109c0-.371-.093-.655-.279-.85s-.44-.299-.762-.299-.588.102-.783.306-.285.501-.285.891v2.061h-.62v-3.728h.62v.531c.122-.19.288-.338.496-.442.213-.105.447-.157.701-.157zm5.937 1.79a3.56 3.56 0 0 1-.021.374h-2.98c.023.367.148.655.375.864a1.22 1.22 0 0 0 .836.306c.268 0 .49-.061.667-.184.182-.127.308-.295.381-.503h.667a1.62 1.62 0 0 1-.599.877c-.299.223-.671.334-1.116.334a1.91 1.91 0 0 1-.952-.238 1.7 1.7 0 0 1-.653-.674c-.159-.295-.238-.635-.238-1.02s.077-.724.231-1.014a1.61 1.61 0 0 1 .646-.667c.282-.159.604-.238.966-.238.354 0 .667.077.939.231a1.58 1.58 0 0 1 .626.64c.15.268.225.571.225.912zm-.64-.13c0-.236-.052-.437-.156-.605-.105-.173-.248-.302-.429-.388s-.374-.136-.592-.136c-.313 0-.58.1-.803.299-.217.2-.342.477-.374.83h2.354zm43.07-2.605v3.503c0 .39-.12.703-.36.939s-.558.347-.953.347-.719-.118-.959-.354-.361-.567-.361-.979h.619c.005.231.064.419.177.564s.293.218.524.218.404-.068.517-.204.17-.318.17-.531v-3.503h.626zm4.526 1.013v3.728h-.619v-.551a1.21 1.21 0 0 1-.497.449 1.52 1.52 0 0 1-.694.157c-.29 0-.551-.059-.782-.177a1.33 1.33 0 0 1-.551-.544c-.136-.24-.197-.533-.197-.878v-2.184h.612v2.103c0 .367.093.65.279.85s.44.292.762.292c.331 0 .592-.102.782-.306s.286-.501.286-.891v-2.048h.619zm1.664-1.306v5.034h-.619v-5.034h.619zm4.267 1.306l-2.245 5.484h-.64l.735-1.796-1.504-3.688h.687l1.171 3.021 1.156-3.021h.64z"/></g><g class="F"><path d="M42.156 176.2h36.717v55.785H42.156V176.2z" class="B"/><path d="M42.156 151.028h36.717V176.2H42.156v-25.172z" class="C"/><path d="M42.156 136.742h36.717v14.286H42.156v-14.286z" class="D"/></g><path d="M42.156 131.98c0-3.006 2.437-5.443 5.443-5.443H73.43c3.006 0 5.442 2.437 5.442 5.443v4.762H42.156v-4.762z" class="E"/><g class="F"><path d="M42.156 219.739h36.717v12.246H42.156v-12.246z" class="G"/><path d="M150.946 171.983h36.716v60.002h-36.716v-60.002z" class="B"/><path d="M150.946 144.909h36.716v27.074h-36.716v-27.074z" class="C"/><path d="M150.946 124.421h36.716v20.489h-36.716v-20.489z" class="D"/></g><path d="M150.946 111.571c0-3.006 2.436-5.443 5.442-5.443h25.832c3.006 0 5.442 2.437 5.442 5.443v12.85h-36.716v-12.85z" class="E"/><g class="F"><path d="M150.946 207.494h36.716v24.491h-36.716v-24.491z" class="G"/><path d="M314.131 176.2h36.716v55.785h-36.716V176.2z" class="B"/><path d="M314.131 151.028h36.716V176.2h-36.716v-25.172z" class="C"/><path d="M314.131 131.98h36.716v19.048h-36.716V131.98z" class="D"/></g><path d="M314.131 120.415c0-3.006 2.437-5.443 5.442-5.443h25.832c3.006 0 5.442 2.437 5.442 5.443v11.565h-36.716v-11.565z" class="E"/><g class="F"><path d="M314.131 207.494h36.716v24.491h-36.716v-24.491z" class="G"/><path d="M368.525 176.2h36.717v55.785h-36.717V176.2z" class="B"/><path d="M368.525 151.028h36.717V176.2h-36.717v-25.172z" class="C"/><path d="M368.525 131.98h36.717v19.048h-36.717V131.98z" class="D"/></g><path d="M368.525 120.415c0-3.006 2.437-5.443 5.443-5.443h25.831c3.006 0 5.443 2.437 5.443 5.443v11.565h-36.717v-11.565z" class="E"/><g class="F"><path d="M205.341 207.66h36.716v24.325h-36.716V207.66z" class="B"/><path d="M205.341 196.609h36.716v19.729h-36.716v-19.729z" class="C"/><path d="M205.341 188.445h36.716v14.287h-36.716v-14.287z" class="D"/></g><path d="M205.341 186.404c0-3.006 2.436-5.442 5.442-5.442h25.832c3.006 0 5.442 2.436 5.442 5.442v1.974h-36.716v-1.974z" class="E"/><g class="F"><path d="M96.551 189.156h36.717v42.829H96.551v-42.829z" class="B"/><path d="M96.551 170.077h36.717v26.532H96.551v-26.532z" class="C"/><path d="M96.551 159.192h36.717v19.048H96.551v-19.048z" class="D"/></g><path d="M96.551 156.471c0-3.006 2.437-5.443 5.443-5.443h25.831c3.006 0 5.443 2.437 5.443 5.443v6.803H96.551v-6.803z" class="E"/><g class="F"><path d="M96.551 228.583h36.717v3.402H96.551v-3.402z" class="G"/><path d="M259.736 202.732h36.716v29.253h-36.716v-29.253z" class="B"/><path d="M259.736 170.077h36.716v32.655h-36.716v-32.655z" class="C"/><path d="M259.736 159.192h36.716v25.171h-36.716v-25.171z" class="D"/></g><path d="M259.736 156.471c0-3.006 2.437-5.443 5.442-5.443h25.832c3.006 0 5.442 2.437 5.442 5.443v6.803h-36.716v-6.803z" class="E"/><path d="M259.736 220.42h36.716v11.565h-36.716V220.42z" class="F G"/><path d="M20.827 28.123c0-.841.188-1.592.563-2.253.384-.669.902-1.188 1.555-1.555.661-.376 1.4-.563 2.217-.563.955 0 1.792.245 2.51.735a3.84 3.84 0 0 1 1.506 2.033h-1.972c-.196-.408-.473-.714-.833-.918-.351-.204-.759-.306-1.225-.306a2.53 2.53 0 0 0-1.335.355 2.39 2.39 0 0 0-.906.98c-.212.424-.318.922-.318 1.494 0 .563.106 1.061.318 1.494a2.48 2.48 0 0 0 .906.992 2.6 2.6 0 0 0 1.335.343c.465 0 .874-.102 1.225-.306.359-.212.637-.523.833-.931h1.972c-.286.874-.788 1.555-1.506 2.045-.71.482-1.547.723-2.51.723-.816 0-1.555-.184-2.216-.551a4.18 4.18 0 0 1-1.555-1.555c-.376-.661-.563-1.412-.563-2.253zm9.497.869c0-.686.135-1.294.404-1.825.278-.531.649-.939 1.114-1.225.474-.286 1-.429 1.58-.429.506 0 .947.102 1.323.306a2.68 2.68 0 0 1 .918.771v-.967h1.727v6.784h-1.727v-.992a2.59 2.59 0 0 1-.918.796c-.384.204-.829.306-1.335.306a2.91 2.91 0 0 1-1.567-.441 3.15 3.15 0 0 1-1.114-1.237c-.269-.539-.404-1.155-.404-1.849zm5.339.024c0-.416-.082-.771-.245-1.065-.163-.302-.384-.531-.661-.686a1.74 1.74 0 0 0-.894-.245 1.74 1.74 0 0 0-.882.233c-.27.155-.49.384-.661.686-.163.294-.245.645-.245 1.053s.082.767.245 1.078a1.88 1.88 0 0 0 .661.698 1.71 1.71 0 0 0 .882.245c.318 0 .616-.078.894-.233a1.78 1.78 0 0 0 .661-.686c.163-.302.245-.661.245-1.078zm5.238-2.339c.22-.359.506-.641.857-.845.359-.204.767-.306 1.224-.306v1.8h-.453c-.539 0-.947.127-1.224.38-.269.253-.404.694-.404 1.322v3.38h-1.714v-6.784h1.714v1.053zm5.073-.061a2.46 2.46 0 0 1 .906-.796c.392-.204.837-.306 1.335-.306a2.93 2.93 0 0 1 1.567.429c.473.286.845.694 1.114 1.225.278.522.416 1.131.416 1.825s-.139 1.31-.416 1.849c-.269.531-.641.943-1.114 1.237-.465.294-.988.441-1.567.441-.506 0-.951-.098-1.335-.294-.376-.204-.678-.465-.906-.784v.967H44.26v-9.062h1.714v3.27zm3.588 2.376c0-.408-.086-.759-.257-1.053-.163-.302-.384-.531-.661-.686-.269-.155-.563-.233-.882-.233-.31 0-.604.082-.882.245-.269.155-.49.384-.661.686-.163.302-.245.657-.245 1.065s.082.763.245 1.065a1.88 1.88 0 0 0 .661.698 1.78 1.78 0 0 0 .882.233 1.67 1.67 0 0 0 .882-.245 1.76 1.76 0 0 0 .661-.698c.172-.302.257-.661.257-1.078zm6.132 3.527c-.653 0-1.241-.143-1.763-.429a3.21 3.21 0 0 1-1.237-1.237c-.294-.531-.441-1.143-.441-1.837s.151-1.306.453-1.837a3.19 3.19 0 0 1 1.261-1.224c.531-.294 1.122-.441 1.776-.441s1.245.147 1.776.441a3.11 3.11 0 0 1 1.249 1.224c.31.531.465 1.143.465 1.837s-.159 1.306-.478 1.837c-.31.531-.735.943-1.273 1.237a3.71 3.71 0 0 1-1.788.429zm0-1.494a1.79 1.79 0 0 0 .869-.22 1.67 1.67 0 0 0 .661-.686c.163-.302.245-.669.245-1.102 0-.645-.172-1.139-.514-1.482a1.64 1.64 0 0 0-1.237-.526 1.64 1.64 0 0 0-1.237.526c-.327.343-.49.837-.49 1.482s.159 1.143.478 1.494a1.62 1.62 0 0 0 1.225.514zm8.678-5.498c.808 0 1.461.257 1.959.771.498.506.747 1.216.747 2.131v3.98h-1.714v-3.747c0-.539-.135-.951-.404-1.237-.269-.294-.637-.441-1.102-.441-.473 0-.849.147-1.127.441-.269.286-.404.698-.404 1.237v3.747h-1.714v-6.784h1.714v.845c.229-.294.518-.522.869-.686a2.7 2.7 0 0 1 1.176-.257zm12.777-1.665v1.384h-3.563v2.192h2.731v1.359h-2.731v3.613h-1.714v-8.547h5.278zm4.35 8.658c-.653 0-1.241-.143-1.763-.429a3.21 3.21 0 0 1-1.237-1.237c-.294-.531-.441-1.143-.441-1.837s.151-1.306.453-1.837a3.19 3.19 0 0 1 1.261-1.224c.531-.294 1.123-.441 1.776-.441s1.245.147 1.776.441a3.11 3.11 0 0 1 1.249 1.224c.31.531.465 1.143.465 1.837s-.159 1.306-.478 1.837c-.31.531-.735.943-1.273 1.237a3.71 3.71 0 0 1-1.788.429zm0-1.494a1.79 1.79 0 0 0 .869-.22 1.67 1.67 0 0 0 .661-.686c.163-.302.245-.669.245-1.102 0-.645-.172-1.139-.514-1.482a1.64 1.64 0 0 0-1.237-.526 1.64 1.64 0 0 0-1.237.526c-.327.343-.49.837-.49 1.482s.159 1.143.478 1.494a1.62 1.62 0 0 0 1.225.514zm7.931 1.494c-.653 0-1.241-.143-1.763-.429-.522-.294-.935-.706-1.237-1.237-.294-.531-.441-1.143-.441-1.837s.151-1.306.453-1.837a3.19 3.19 0 0 1 1.261-1.224c.531-.294 1.123-.441 1.776-.441s1.245.147 1.776.441a3.11 3.11 0 0 1 1.249 1.224c.31.531.465 1.143.465 1.837s-.159 1.306-.478 1.837a3.25 3.25 0 0 1-1.274 1.237 3.71 3.71 0 0 1-1.788.429zm0-1.494a1.79 1.79 0 0 0 .87-.22 1.67 1.67 0 0 0 .661-.686c.163-.302.245-.669.245-1.102 0-.645-.171-1.139-.514-1.482a1.64 1.64 0 0 0-1.237-.526 1.64 1.64 0 0 0-1.237.526c-.326.343-.49.837-.49 1.482s.159 1.143.478 1.494a1.62 1.62 0 0 0 1.225.514zm6.915-3.992v3.282c0 .229.053.396.159.502.114.098.302.147.563.147h.796v1.445h-1.078c-1.445 0-2.168-.702-2.168-2.106v-3.27h-.808v-1.408h.808v-1.678h1.727v1.678h1.518v1.408h-1.518zm4.588-.429c.221-.31.523-.567.907-.771.391-.212.836-.318 1.334-.318.58 0 1.102.143 1.568.429a2.95 2.95 0 0 1 1.114 1.225c.278.522.417 1.131.417 1.825s-.139 1.31-.417 1.849c-.269.531-.641.943-1.114 1.237-.466.294-.988.441-1.568.441-.498 0-.938-.102-1.322-.306-.376-.204-.682-.461-.919-.771v4.2H99.22v-10.02h1.714v.98zm3.588 2.388c0-.408-.085-.759-.257-1.053a1.67 1.67 0 0 0-.661-.686c-.269-.155-.563-.233-.882-.233a1.71 1.71 0 0 0-.881.245c-.27.155-.49.384-.662.686-.163.302-.245.657-.245 1.065s.082.763.245 1.065a1.88 1.88 0 0 0 .662.698 1.78 1.78 0 0 0 .881.233 1.67 1.67 0 0 0 .882-.245c.278-.163.498-.396.661-.698.172-.302.257-.661.257-1.078zm4.834-2.314a2.43 2.43 0 0 1 .857-.845 2.44 2.44 0 0 1 1.225-.306v1.8h-.453c-.539 0-.947.127-1.225.38-.269.253-.404.694-.404 1.322v3.38h-1.714v-6.784h1.714v1.053zm4.228-1.861c-.302 0-.555-.094-.759-.282a.98.98 0 0 1-.294-.723.94.94 0 0 1 .294-.71c.204-.196.457-.294.759-.294a1.01 1.01 0 0 1 .747.294.92.92 0 0 1 .307.71.96.96 0 0 1-.307.723c-.195.188-.444.282-.747.282zm.845.808v6.784h-1.714v-6.784h1.714zm5.576-.098c.808 0 1.461.257 1.959.771.498.506.747 1.216.747 2.131v3.98h-1.714v-3.747c0-.539-.135-.951-.404-1.237-.27-.294-.637-.441-1.102-.441-.474 0-.849.147-1.127.441-.269.286-.404.698-.404 1.237v3.747h-1.714v-6.784h1.714v.845c.229-.294.518-.522.869-.686a2.7 2.7 0 0 1 1.176-.257zm6.455 1.506v3.282c0 .229.053.396.159.502.115.098.302.147.564.147h.796v1.445H126.9c-1.445 0-2.168-.702-2.168-2.106v-3.27h-.808v-1.408h.808v-1.678h1.727v1.678h1.519v1.408h-1.519zm202.54 3.851l2.301-1.931a9.4 9.4 0 0 0 1.4-1.584c.385-.555.578-1.099.578-1.631 0-.501-.123-.894-.37-1.18-.239-.293-.628-.439-1.168-.439-.524 0-.933.166-1.226.497-.285.324-.439.759-.463 1.307h-1.017c.031-.863.293-1.53.786-2.001s1.13-.705 1.908-.705c.795 0 1.423.22 1.886.659.47.439.705 1.045.705 1.816 0 .64-.193 1.264-.578 1.874-.378.601-.81 1.133-1.296 1.596l-1.862 1.596h3.979v.879h-5.563v-.752zm8.04-.613l-1.295 3.111h-.706l.845-3.111h1.156zm.778-.405v-.798l4.059-5.621h1.261v5.505h1.156v.914h-1.156v1.862h-1.041v-1.862h-4.279zm4.325-5.32l-3.111 4.406h3.111v-4.406zm2.925-.22v-.96h2.174v8.362h-1.064v-7.402h-1.11zm3.855 6.557l2.301-1.931a9.4 9.4 0 0 0 1.4-1.584c.385-.555.578-1.099.578-1.631 0-.501-.123-.894-.37-1.18-.239-.293-.628-.439-1.168-.439-.524 0-.933.166-1.226.497-.285.324-.44.759-.463 1.307h-1.017c.03-.863.293-1.53.786-2.001s1.13-.705 1.908-.705c.794 0 1.423.22 1.885.659.471.439.706 1.045.706 1.816 0 .64-.193 1.264-.578 1.874-.378.601-.81 1.133-1.296 1.596l-1.862 1.596h3.979v.879h-5.563v-.752zm8.04-.613l-1.295 3.111h-.706l.844-3.111h1.157zm1.009-4.799c.054-.709.328-1.265.821-1.665s1.133-.601 1.92-.601c.524 0 .975.096 1.353.289.386.185.675.44.867.763a2.04 2.04 0 0 1 .301 1.099c0 .478-.139.89-.416 1.238a1.82 1.82 0 0 1-1.064.671v.058c.501.123.898.366 1.191.729s.439.837.439 1.423a2.38 2.38 0 0 1-.3 1.191c-.201.347-.501.621-.902.821s-.883.301-1.446.301c-.817 0-1.488-.212-2.012-.636-.525-.432-.818-1.041-.879-1.827h1.017c.054.463.243.84.567 1.133s.756.439 1.295.439.949-.139 1.226-.416c.286-.285.428-.652.428-1.099 0-.578-.192-.995-.578-1.249s-.968-.382-1.746-.382h-.266v-.879h.277c.71-.008 1.245-.123 1.608-.347.362-.231.543-.586.543-1.064 0-.409-.135-.736-.404-.983-.263-.247-.64-.37-1.134-.37-.478 0-.863.123-1.156.37a1.5 1.5 0 0 0-.521.995h-1.029zm6.556-1.145v-.96h2.174v8.362h-1.064v-7.402h-1.11zm3.728 5.54v-.798l4.059-5.621h1.261v5.505h1.156v.914h-1.156v1.862h-1.041v-1.862h-4.279zm4.325-5.32l-3.111 4.406h3.111v-4.406zm4.66 1.712v3.736c0 .308.065.528.196.659.131.123.359.185.683.185h.774v.891h-.948c-.586 0-1.025-.135-1.318-.405s-.44-.713-.44-1.33v-3.736h-.821v-.867h.821v-1.596h1.053v1.596h1.653v.867h-1.653z" class="H"/><path d="M382.728 28.405c0-.648.146-1.229.438-1.743.292-.521.689-.927 1.191-1.219.508-.292 1.069-.438 1.685-.438.724 0 1.356.175 1.896.524s.933.845 1.181 1.486h-1.038a2.08 2.08 0 0 0-.8-.924c-.343-.216-.756-.324-1.239-.324-.463 0-.879.108-1.247.324s-.657.524-.867.924c-.21.394-.314.857-.314 1.391 0 .527.104.99.314 1.39a2.27 2.27 0 0 0 .867.914 2.42 2.42 0 0 0 1.247.324c.483 0 .896-.105 1.239-.314a2.08 2.08 0 0 0 .8-.924h1.038c-.248.635-.642 1.127-1.181 1.476-.54.343-1.172.514-1.896.514-.616 0-1.177-.143-1.685-.429a3.2 3.2 0 0 1-1.191-1.21c-.292-.514-.438-1.095-.438-1.743zm10.691 3.391c-.616 0-1.178-.143-1.686-.429-.508-.292-.911-.695-1.21-1.21a3.52 3.52 0 0 1-.438-1.752c0-.648.146-1.229.438-1.743.299-.521.702-.924 1.21-1.21.508-.292 1.07-.438 1.686-.438a3.34 3.34 0 0 1 1.695.438c.508.286.908.686 1.2 1.2s.438 1.099.438 1.753-.146 1.238-.438 1.752a3.18 3.18 0 0 1-1.2 1.21c-.508.286-1.073.429-1.695.429zm0-.752c.463 0 .879-.108 1.247-.324a2.24 2.24 0 0 0 .877-.924c.215-.4.323-.864.323-1.39 0-.533-.108-.997-.323-1.391-.21-.4-.499-.708-.867-.924a2.44 2.44 0 0 0-1.257-.324c-.47 0-.889.108-1.258.324s-.66.524-.876.924c-.209.394-.314.857-.314 1.391 0 .527.105.99.314 1.39.216.4.508.708.876.924.375.216.794.324 1.258.324zm4.23-.009l1.895-1.591c.457-.419.841-.854 1.152-1.305.318-.457.477-.905.477-1.343 0-.413-.102-.737-.305-.972-.197-.241-.518-.362-.962-.362-.432 0-.768.136-1.01.41-.235.267-.362.625-.381 1.076h-.838c.026-.711.242-1.26.648-1.648s.93-.581 1.571-.581c.654 0 1.172.181 1.553.543.387.362.581.86.581 1.495 0 .527-.159 1.041-.476 1.543a6.83 6.83 0 0 1-1.067 1.314l-1.534 1.314h3.277v.724h-4.581v-.619zm10.488-2.114a5.12 5.12 0 0 1-.029.524h-4.171c.031.514.206.917.523 1.21a1.71 1.71 0 0 0 1.172.429c.374 0 .686-.086.933-.257.254-.178.432-.413.534-.705h.933a2.27 2.27 0 0 1-.838 1.229c-.419.311-.94.467-1.562.467-.495 0-.94-.111-1.334-.333-.387-.222-.692-.537-.914-.943-.222-.413-.333-.889-.333-1.429s.108-1.013.324-1.419.517-.718.904-.933c.394-.222.845-.333 1.353-.333.495 0 .933.108 1.314.324a2.2 2.2 0 0 1 .876.895c.21.375.315.8.315 1.276zm-.896-.181c0-.33-.073-.613-.219-.848a1.38 1.38 0 0 0-.6-.543c-.247-.127-.523-.191-.828-.191-.438 0-.813.14-1.124.419-.305.279-.479.667-.524 1.162h3.295z" fill="#444"/></svg>