<svg xmlns="http://www.w3.org/2000/svg" xmlns:xlink="http://www.w3.org/1999/xlink" width="956" height="375" fill="none" xmlns:v="https://vecta.io/nano"><g opacity=".6"><g fill="#fff"><path d="M0 20C0 8.954 8.954 0 20 0h916c11.046 0 20 8.954 20 20v355H0V20z"/><path d="M0 0h956v46.472H0V0z"/></g><g fill="#f2f4fa"><path fill-rule="evenodd" d="M956 46.472H0v-.664h956v.664z"/><path d="M829.861 23.236a14.61 14.61 0 0 1-14.606 14.606 14.61 14.61 0 0 1-14.605-14.606A14.61 14.61 0 0 1 815.255 8.63a14.61 14.61 0 0 1 14.606 14.606zm-634.014 0a4.65 4.65 0 0 1 4.647-4.647h51.784a4.65 4.65 0 0 1 4.647 4.647h0a4.65 4.65 0 0 1-4.647 4.647h-51.784a4.65 4.65 0 0 1-4.647-4.647h0zm98.256 0a4.65 4.65 0 0 1 4.647-4.647h51.783a4.65 4.65 0 0 1 4.647 4.647h0a4.65 4.65 0 0 1-4.647 4.647H298.75a4.65 4.65 0 0 1-4.647-4.647h0zm98.255 0a4.65 4.65 0 0 1 4.648-4.647h51.783a4.65 4.65 0 0 1 4.647 4.647h0a4.65 4.65 0 0 1-4.647 4.647h-51.783a4.65 4.65 0 0 1-4.648-4.647h0zm98.256 0a4.65 4.65 0 0 1 4.647-4.647h51.783a4.65 4.65 0 0 1 4.648 4.647h0a4.65 4.65 0 0 1-4.648 4.647h-51.783a4.65 4.65 0 0 1-4.647-4.647h0zm352.525 0a4.65 4.65 0 0 1 4.647-4.647h51.783a4.65 4.65 0 0 1 4.647 4.647h0a4.65 4.65 0 0 1-4.647 4.647h-51.783a4.65 4.65 0 0 1-4.647-4.647h0zm-191.864 0a4.65 4.65 0 0 1 4.647-4.647h112.861a4.65 4.65 0 0 1 4.647 4.647h0a4.65 4.65 0 0 1-4.647 4.647H655.922a4.65 4.65 0 0 1-4.647-4.647h0z"/><use xlink:href="#B"/><use xlink:href="#B" x="15.27"/><use xlink:href="#B" x="30.539"/></g></g><defs ><path id="B" d="M40.497 23.236a4.65 4.65 0 0 1-4.647 4.647 4.65 4.65 0 0 1-4.647-4.647 4.65 4.65 0 0 1 4.647-4.647 4.65 4.65 0 0 1 4.647 4.647z"/></defs></svg>