<svg xmlns="http://www.w3.org/2000/svg" width="171" height="237" fill="none" xmlns:v="https://vecta.io/nano"><rect width="171" height="237" rx="5.664" fill="#fff"/><rect x="16.987" y="166.862" width="5.662" height="5.656" rx="2.828" fill="#ff974a"/><path d="M31.428 172.958c-.513 0-.981-.119-1.403-.357s-.759-.579-1.007-1.007c-.243-.434-.365-.92-.365-1.459s.122-1.023.365-1.451a2.63 2.63 0 0 1 1.007-1.007c.423-.243.891-.365 1.403-.365a2.78 2.78 0 0 1 1.411.365c.423.243.756.571.999.999a2.9 2.9 0 0 1 .365 1.459c0 .544-.122 1.031-.365 1.459a2.65 2.65 0 0 1-.999 1.007c-.423.238-.893.357-1.411.357zm0-.627c.386 0 .732-.09 1.039-.269a1.86 1.86 0 0 0 .729-.77c.18-.333.27-.718.27-1.157s-.09-.83-.27-1.158a1.88 1.88 0 0 0-.721-.769c-.307-.18-.655-.269-1.047-.269s-.74.089-1.047.269-.55.436-.73.769c-.174.328-.262.714-.262 1.158s.087.824.262 1.157a1.93 1.93 0 0 0 .73.77c.312.179.661.269 1.047.269zm5.496-3.179h-.912v3.75h-.721v-3.75h-.563v-.595h.563v-.309c0-.487.124-.841.373-1.063.254-.227.658-.341 1.213-.341v.603c-.317 0-.542.063-.674.19s-.19.325-.19.611v.309h.912v.595zm2.61 0h-.912v3.75H37.9v-3.75h-.563v-.595h.563v-.309c0-.487.124-.841.373-1.063.254-.227.658-.341 1.213-.341v.603c-.317 0-.542.063-.674.19s-.19.325-.19.611v.309h.912v.595zm2.38 3.821c-.333 0-.632-.055-.896-.166a1.51 1.51 0 0 1-.626-.476c-.153-.201-.238-.441-.254-.705h.745a.74.74 0 0 0 .301.531c.185.137.425.206.721.206.275 0 .492-.061.65-.182s.238-.275.238-.46c0-.191-.085-.331-.254-.421s-.431-.187-.785-.277a6.46 6.46 0 0 1-.793-.254 1.51 1.51 0 0 1-.523-.388c-.143-.175-.214-.402-.214-.682a1.03 1.03 0 0 1 .198-.611c.132-.185.32-.33.563-.436s.521-.166.833-.166c.481 0 .87.121 1.166.364s.455.577.476.999h-.721a.74.74 0 0 0-.278-.547c-.164-.137-.386-.206-.666-.206-.259 0-.465.056-.618.167s-.23.256-.23.436a.5.5 0 0 0 .135.357c.095.089.211.163.349.222l.587.182c.312.085.566.169.761.254a1.26 1.26 0 0 1 .499.364c.143.164.217.378.222.643a1.1 1.1 0 0 1-.198.642c-.132.19-.32.341-.563.452a2.01 2.01 0 0 1-.825.158zm6.569-2.41a4.26 4.26 0 0 1-.024.436h-3.473c.027.428.172.764.436 1.007.27.238.595.357.975.357.312 0 .571-.071.777-.214a1.17 1.17 0 0 0 .444-.587h.777c-.116.418-.349.759-.698 1.023-.349.259-.782.388-1.3.388a2.22 2.22 0 0 1-1.11-.277 1.98 1.98 0 0 1-.761-.785 2.47 2.47 0 0 1-.277-1.189c0-.45.09-.844.27-1.182a1.88 1.88 0 0 1 .753-.777 2.25 2.25 0 0 1 1.126-.277c.412 0 .777.089 1.094.269a1.83 1.83 0 0 1 .73.746 2.14 2.14 0 0 1 .262 1.062zm-.745-.151c0-.275-.061-.51-.182-.705a1.14 1.14 0 0 0-.499-.452c-.206-.106-.436-.159-.69-.159a1.35 1.35 0 0 0-.936.349c-.254.233-.399.555-.436.967h2.743zm2.578-1.26v2.561c0 .211.045.362.135.452.09.084.246.127.468.127h.531v.61h-.65c-.402 0-.703-.092-.904-.277s-.301-.489-.301-.912v-2.561h-.563v-.595h.563v-1.094h.722v1.094h1.134v.595h-1.134zm63.734-1.556h-2.656v1.578a1.26 1.26 0 0 1 .491-.373 1.7 1.7 0 0 1 .706-.151c.444 0 .804.095 1.078.286a1.56 1.56 0 0 1 .595.721c.122.291.183.598.183.92 0 .391-.077.74-.23 1.047-.148.301-.373.539-.674.713s-.661.262-1.095.262c-.576 0-1.038-.143-1.387-.428s-.558-.664-.627-1.134h.881c.058.248.187.447.388.595.201.142.452.214.753.214.376 0 .656-.114.841-.341s.285-.529.285-.904c0-.381-.095-.671-.285-.872s-.471-.31-.841-.31c-.259 0-.478.067-.658.199-.174.127-.301.301-.38.523h-.857v-3.338h3.489v.793zm2.463 3.433c.053.264.167.465.341.603s.41.206.706.206c.375 0 .65-.148.825-.444s.261-.801.261-1.515c-.127.18-.306.32-.539.421-.227.095-.476.142-.745.142-.344 0-.656-.068-.936-.206a1.62 1.62 0 0 1-.666-.626c-.158-.28-.238-.619-.238-1.015 0-.582.169-1.044.508-1.388s.814-.523 1.411-.523c.719 0 1.229.24 1.53.721.307.476.46 1.208.46 2.197 0 .682-.058 1.239-.174 1.673s-.307.761-.587.983-.669.333-1.165.333c-.566 0-1.002-.148-1.309-.444a1.69 1.69 0 0 1-.515-1.118h.832zm1.007-1.348c.318 0 .566-.098.746-.293.185-.201.277-.465.277-.793 0-.365-.098-.648-.293-.849-.19-.206-.452-.309-.785-.309s-.597.106-.793.317c-.19.206-.285.479-.285.817 0 .322.092.589.277.801.19.206.476.309.856.309zm6.134-.714v2.419c0 .164.037.283.111.357.079.068.211.103.396.103h.555v.753h-.713c-.407 0-.719-.095-.936-.285s-.325-.5-.325-.928v-2.419h-.515v-.737h.515v-1.086h.912v1.086h1.062v.737h-1.062zm3.79 3.703c-.412 0-.785-.092-1.118-.277a2.03 2.03 0 0 1-.785-.793c-.19-.344-.285-.74-.285-1.189s.098-.838.293-1.182.463-.608.801-.793.716-.277 1.134-.277.796.092 1.134.277.605.45.801.793.293.738.293 1.182-.1.837-.301 1.181-.476.611-.825.801c-.343.185-.724.277-1.142.277zm0-.785c.233 0 .45-.055.651-.166s.372-.278.499-.5.19-.491.19-.808-.06-.585-.182-.801a1.23 1.23 0 0 0-.484-.5 1.32 1.32 0 0 0-.65-.166c-.232 0-.449.055-.65.166-.196.111-.352.278-.468.5-.116.216-.174.483-.174.801 0 .47.119.835.357 1.094s.547.38.911.38zm5.366-3.726c.344 0 .65.071.92.214.275.143.489.354.642.634s.23.619.23 1.015v2.577h-.896v-2.442c0-.391-.098-.69-.293-.896-.196-.212-.463-.317-.801-.317s-.608.105-.809.317c-.196.206-.293.505-.293.896v2.442h-.904v-4.369h.904v.5c.148-.18.335-.32.563-.421s.478-.15.737-.15zm5.149 0c.344 0 .65.071.92.214.275.143.489.354.642.634s.23.619.23 1.015v2.577h-.896v-2.442c0-.391-.098-.69-.293-.896-.196-.212-.463-.317-.801-.317s-.608.105-.809.317c-.195.206-.293.505-.293.896v2.442h-.904v-4.369h.904v.5a1.51 1.51 0 0 1 .563-.421c.232-.1.478-.15.737-.15zm6.949 2.149c0 .163-.01.311-.031.444h-3.338c.026.348.155.629.388.84s.518.317.856.317c.487 0 .83-.203 1.031-.61h.975a1.98 1.98 0 0 1-.721.991c-.344.253-.772.38-1.285.38a2.28 2.28 0 0 1-1.126-.277c-.327-.19-.586-.455-.777-.793a2.47 2.47 0 0 1-.277-1.189c0-.45.09-.844.269-1.182.185-.343.442-.608.77-.793s.713-.277 1.141-.277c.413 0 .78.09 1.103.269a1.89 1.89 0 0 1 .753.762c.179.322.269.695.269 1.118zm-.943-.286c-.005-.333-.124-.6-.357-.801s-.521-.301-.864-.301a1.15 1.15 0 0 0-.801.301c-.222.196-.354.463-.397.801h2.419zm3.419 2.648c-.344 0-.653-.06-.928-.182-.27-.127-.484-.296-.642-.507-.159-.217-.243-.458-.254-.722h.936c.016.185.103.341.261.468.164.121.368.182.611.182.254 0 .449-.047.587-.143a.45.45 0 0 0 .214-.38c0-.164-.08-.286-.238-.365s-.399-.166-.738-.262l-.8-.261a1.44 1.44 0 0 1-.54-.389c-.148-.174-.222-.404-.222-.69 0-.232.069-.444.207-.634s.333-.349.586-.46c.259-.111.555-.166.888-.166.497 0 .896.127 1.198.38s.47.59.491 1.023h-.904c-.016-.195-.095-.351-.238-.468s-.335-.174-.578-.174-.421.045-.547.135a.42.42 0 0 0-.191.357c0 .116.043.214.127.293a.96.96 0 0 0 .309.19l.54.167a5.21 5.21 0 0 1 .777.261c.206.085.383.212.531.381s.224.394.23.674c0 .248-.069.47-.206.666s-.333.349-.587.46-.542.166-.88.166z" fill="#000"/><rect x="16.987" y="186.093" width="5.662" height="5.656" rx="2.828" fill="#3dd598"/><g fill="#000"><path d="M32.324 186.607v.587h-1.506v4.94h-.721v-4.94h-1.515v-.587h3.742zm2.783 5.598c-.407 0-.777-.092-1.11-.277a2.02 2.02 0 0 1-.777-.785c-.185-.344-.278-.74-.278-1.19a2.35 2.35 0 0 1 .285-1.173 1.99 1.99 0 0 1 .793-.785 2.32 2.32 0 0 1 1.118-.278c.412 0 .785.093 1.118.278a1.95 1.95 0 0 1 .785.777c.196.338.293.732.293 1.181s-.1.846-.301 1.19a2.04 2.04 0 0 1-.801.785 2.31 2.31 0 0 1-1.126.277zm0-.634a1.53 1.53 0 0 0 .729-.182 1.36 1.36 0 0 0 .547-.548c.143-.243.214-.539.214-.888s-.069-.644-.206-.888-.317-.423-.539-.539c-.222-.121-.463-.182-.722-.182a1.5 1.5 0 0 0-.729.182c-.217.116-.391.296-.523.539s-.198.54-.198.888c0 .355.063.653.19.896.132.244.307.426.523.548a1.49 1.49 0 0 0 .714.174zm4.057-3.188v2.562c0 .211.045.362.135.452.09.084.246.126.468.126h.531v.611h-.65c-.402 0-.703-.093-.904-.278s-.301-.489-.301-.911v-2.562h-.563v-.594h.563v-1.094h.721v1.094h1.134v.594h-1.134zm1.739 1.562c0-.444.09-.832.27-1.165a1.96 1.96 0 0 1 .737-.785c.317-.185.669-.278 1.055-.278.381 0 .711.082.991.246s.489.37.626.619v-.793h.73v4.345h-.73v-.809c-.143.254-.357.465-.642.634a1.91 1.91 0 0 1-.983.246c-.386 0-.735-.095-1.047-.285a2 2 0 0 1-.737-.801c-.18-.344-.27-.735-.27-1.174zm3.679.008c0-.327-.066-.613-.198-.856s-.312-.428-.539-.555c-.222-.132-.468-.198-.737-.198a1.46 1.46 0 0 0-.737.19 1.38 1.38 0 0 0-.531.555c-.132.243-.198.529-.198.856 0 .334.066.624.198.873.132.243.309.43.531.563a1.46 1.46 0 0 0 .737.19 1.46 1.46 0 0 0 .737-.19c.227-.133.407-.32.539-.563.132-.249.198-.537.198-.865zm2.67-3.687v5.868h-.721v-5.868h.721zm4.065.928v1.848h2.014v.594h-2.014v1.903h2.252v.595h-2.973v-5.535h2.973v.595h-2.252zm8.569.515a1.87 1.87 0 0 1 .904.215c.264.137.473.346.626.626s.23.621.23 1.023v2.561h-.714v-2.458c0-.434-.108-.764-.325-.991-.211-.233-.5-.349-.864-.349-.375 0-.674.121-.896.365-.222.237-.333.584-.333 1.038v2.395H57.8v-2.458c0-.434-.108-.764-.325-.991-.212-.233-.5-.349-.864-.349-.375 0-.674.121-.896.365-.222.237-.333.584-.333 1.038v2.395h-.722v-4.345h.722v.626a1.43 1.43 0 0 1 .571-.523 1.76 1.76 0 0 1 .801-.183 1.88 1.88 0 0 1 .967.246 1.5 1.5 0 0 1 .626.722c.121-.307.322-.545.603-.714a1.78 1.78 0 0 1 .936-.254zm3.316-.626a.47.47 0 0 1-.349-.143c-.095-.095-.143-.211-.143-.349a.47.47 0 0 1 .492-.491c.132 0 .243.047.333.143.095.095.143.211.143.348a.47.47 0 0 1-.143.349c-.09.096-.201.143-.333.143zm.349.706v4.345h-.722v-4.345h.722zm2.768 4.416c-.333 0-.632-.055-.896-.166a1.56 1.56 0 0 1-.626-.476c-.153-.201-.238-.441-.254-.706h.745a.74.74 0 0 0 .301.532c.185.137.425.206.722.206.275 0 .492-.061.65-.183a.56.56 0 0 0 .238-.46.45.45 0 0 0-.254-.42c-.169-.09-.431-.187-.785-.277a6.45 6.45 0 0 1-.793-.254 1.5 1.5 0 0 1-.523-.389c-.143-.174-.214-.401-.214-.681a1.03 1.03 0 0 1 .198-.611c.132-.185.32-.33.563-.436s.521-.167.833-.167c.481 0 .87.122 1.166.365s.455.576.476.999h-.722a.74.74 0 0 0-.278-.547c-.164-.137-.386-.206-.666-.206-.259 0-.465.055-.618.166s-.23.257-.23.437a.5.5 0 0 0 .135.356 1.16 1.16 0 0 0 .349.222c.143.053.338.114.587.183.312.084.566.169.761.253a1.27 1.27 0 0 1 .5.365c.143.164.217.378.222.642 0 .238-.066.452-.198.643a1.34 1.34 0 0 1-.563.452c-.238.105-.513.158-.825.158zm4.143 0c-.333 0-.632-.055-.896-.166a1.56 1.56 0 0 1-.626-.476c-.153-.201-.238-.441-.254-.706h.745a.74.74 0 0 0 .301.532c.185.137.425.206.722.206.275 0 .492-.061.65-.183a.56.56 0 0 0 .238-.46.45.45 0 0 0-.254-.42c-.169-.09-.431-.187-.785-.277a6.46 6.46 0 0 1-.793-.254 1.5 1.5 0 0 1-.523-.389c-.143-.174-.214-.401-.214-.681a1.03 1.03 0 0 1 .198-.611c.132-.185.32-.33.563-.436s.521-.167.833-.167c.481 0 .87.122 1.166.365s.455.576.476.999h-.722a.74.74 0 0 0-.278-.547c-.164-.137-.386-.206-.666-.206-.259 0-.465.055-.618.166s-.23.257-.23.437a.5.5 0 0 0 .135.356 1.16 1.16 0 0 0 .349.222c.143.053.338.114.587.183.312.084.566.169.761.253a1.27 1.27 0 0 1 .499.365c.143.164.217.378.222.642 0 .238-.066.452-.198.643a1.34 1.34 0 0 1-.563.452c-.238.105-.513.158-.825.158zm2.977-5.122a.47.47 0 0 1-.349-.143c-.095-.095-.143-.211-.143-.349a.47.47 0 0 1 .492-.491c.132 0 .243.047.333.143s.143.211.143.348-.048.254-.143.349-.201.143-.333.143zm.349.706v4.345h-.722v-4.345h.722zm3.125 4.416c-.407 0-.777-.092-1.11-.277a2.02 2.02 0 0 1-.777-.785c-.185-.344-.278-.74-.278-1.19a2.35 2.35 0 0 1 .285-1.173 1.99 1.99 0 0 1 .793-.785 2.32 2.32 0 0 1 1.118-.278c.412 0 .785.093 1.118.278a1.95 1.95 0 0 1 .785.777c.196.338.293.732.293 1.181s-.1.846-.301 1.19a2.04 2.04 0 0 1-.801.785 2.31 2.31 0 0 1-1.126.277zm0-.634a1.53 1.53 0 0 0 .73-.182 1.36 1.36 0 0 0 .547-.548c.143-.243.214-.539.214-.888s-.069-.644-.206-.888-.317-.423-.539-.539c-.222-.121-.463-.182-.722-.182a1.5 1.5 0 0 0-.73.182c-.217.116-.391.296-.523.539s-.198.54-.198.888c0 .355.063.653.19.896.132.244.307.426.523.548a1.49 1.49 0 0 0 .714.174zm5.294-3.862c.529 0 .957.162 1.285.484s.492.777.492 1.38v2.561h-.714v-2.458c0-.434-.108-.764-.325-.991-.217-.233-.513-.349-.888-.349-.381 0-.684.119-.912.357-.222.238-.333.584-.333 1.038v2.403h-.722v-4.345h.722v.618c.143-.222.336-.394.579-.515.248-.122.521-.183.817-.183zm4.493 4.496c-.333 0-.632-.055-.896-.166a1.56 1.56 0 0 1-.626-.476c-.153-.201-.238-.441-.254-.706h.745c.021.217.121.394.301.532s.425.206.722.206c.275 0 .492-.061.65-.183a.56.56 0 0 0 .238-.46.45.45 0 0 0-.254-.42c-.169-.09-.431-.187-.785-.277a6.45 6.45 0 0 1-.793-.254 1.5 1.5 0 0 1-.523-.389c-.143-.174-.214-.401-.214-.681a1.03 1.03 0 0 1 .198-.611c.132-.185.32-.33.563-.436s.521-.167.833-.167c.481 0 .869.122 1.166.365s.455.576.476.999h-.722a.74.74 0 0 0-.278-.547c-.164-.137-.386-.206-.666-.206-.259 0-.465.055-.618.166s-.23.257-.23.437c0 .142.045.261.135.356s.211.164.349.222c.143.053.338.114.587.183.312.084.566.169.761.253a1.27 1.27 0 0 1 .5.365c.143.164.217.378.222.642 0 .238-.066.452-.198.643a1.34 1.34 0 0 1-.563.452c-.238.105-.513.158-.825.158zm27.35-5.377h-2.656v1.577c.111-.148.275-.272.491-.372.222-.101.458-.151.706-.151.444 0 .804.095 1.078.286.281.19.479.43.595.721.122.291.183.597.183.92 0 .391-.077.74-.23 1.047-.148.301-.373.539-.674.713s-.661.262-1.095.262c-.576 0-1.038-.143-1.387-.428s-.558-.664-.627-1.134h.881c.058.248.187.446.388.594s.452.215.753.215c.376 0 .656-.114.841-.341s.285-.529.285-.904c0-.381-.095-.672-.285-.873s-.471-.309-.841-.309c-.259 0-.478.066-.658.198-.174.127-.301.302-.38.524h-.857v-3.338h3.489v.793zm2.313 1.982c-.55-.275-.825-.708-.825-1.301 0-.285.071-.547.214-.785s.357-.425.642-.562c.286-.143.635-.215 1.047-.215s.753.072 1.039.215c.291.137.507.325.65.562s.214.5.214.785c0 .296-.077.558-.23.785-.148.222-.346.394-.595.516.302.111.54.293.714.547.175.248.262.542.262.88 0 .344-.087.648-.262.912s-.418.468-.729.61-.666.215-1.063.215-.751-.072-1.062-.215a1.68 1.68 0 0 1-.722-.61 1.62 1.62 0 0 1-.262-.912c0-.344.088-.64.262-.888a1.47 1.47 0 0 1 .706-.539zm2.117-1.19c0-.296-.093-.523-.278-.681s-.438-.238-.761-.238c-.317 0-.568.079-.753.238s-.278.388-.278.689a.83.83 0 0 0 .286.651c.195.163.444.245.745.245s.55-.084.745-.253a.82.82 0 0 0 .294-.651zm-1.039 1.586c-.349 0-.634.088-.856.262s-.325.415-.325.737c0 .302.105.547.317.738.211.185.499.277.864.277.36 0 .642-.095.849-.285a.94.94 0 0 0 .317-.73c0-.317-.109-.563-.325-.737s-.492-.262-.841-.262zm2.987-1.728c.032-.492.219-.875.563-1.15s.793-.412 1.332-.412c.37 0 .69.066.959.198a1.43 1.43 0 0 1 .611.539 1.46 1.46 0 0 1 .206.769c0 .328-.087.608-.262.841s-.383.388-.626.468v.031c.312.095.555.27.73.524.174.248.261.568.261.959 0 .312-.071.589-.214.833a1.5 1.5 0 0 1-.634.578c-.28.138-.616.207-1.007.207-.571 0-1.042-.146-1.412-.437-.364-.296-.56-.718-.586-1.268h.872c.021.28.129.51.325.69.196.174.46.261.793.261.322 0 .571-.087.745-.261.175-.18.262-.41.262-.69 0-.37-.119-.632-.357-.785-.233-.159-.592-.238-1.078-.238h-.206v-.745h.214c.428-.006.753-.077.975-.214s.341-.355.341-.651a.77.77 0 0 0-.246-.602c-.164-.154-.396-.23-.698-.23-.296 0-.526.076-.69.23a.9.9 0 0 0-.293.555h-.88zm7.957.721v2.419c0 .164.037.282.111.356s.211.104.396.104h.555v.753h-.713c-.407 0-.719-.095-.936-.286s-.325-.499-.325-.927v-2.419h-.515v-.737h.515v-1.086h.912v1.086h1.062v.737h-1.062zm3.791 3.703a2.26 2.26 0 0 1-1.118-.277 2.06 2.06 0 0 1-.785-.793c-.191-.344-.286-.74-.286-1.19 0-.444.098-.837.293-1.181a2.03 2.03 0 0 1 .801-.793c.339-.185.717-.277 1.134-.277s.796.092 1.134.277a2.03 2.03 0 0 1 .801.793c.195.344.293.737.293 1.181s-.1.838-.301 1.182a2.11 2.11 0 0 1-.825.801c-.343.185-.724.277-1.141.277zm0-.785c.232 0 .449-.055.65-.166s.372-.278.499-.5.191-.491.191-.809-.061-.584-.183-.8c-.121-.222-.283-.389-.484-.5a1.32 1.32 0 0 0-.65-.166c-.232 0-.449.055-.65.166a1.2 1.2 0 0 0-.468.5c-.116.216-.174.483-.174.8 0 .471.119.836.357 1.095.243.253.547.38.912.38zm5.365-3.726c.344 0 .65.071.92.214a1.51 1.51 0 0 1 .642.634c.153.28.23.618.23 1.015v2.577h-.896v-2.442c0-.392-.098-.69-.293-.896-.196-.212-.463-.317-.801-.317s-.608.105-.809.317c-.195.206-.293.504-.293.896v2.442h-.904v-4.369h.904v.499a1.51 1.51 0 0 1 .563-.42c.232-.1.478-.15.737-.15zm5.149 0a1.93 1.93 0 0 1 .92.214 1.51 1.51 0 0 1 .642.634c.154.28.23.618.23 1.015v2.577h-.896v-2.442c0-.392-.097-.69-.293-.896-.196-.212-.463-.317-.801-.317s-.608.105-.809.317c-.195.206-.293.504-.293.896v2.442h-.904v-4.369h.904v.499a1.52 1.52 0 0 1 .563-.42c.233-.1.478-.15.737-.15zm6.949 2.148c0 .164-.01.312-.031.444h-3.338c.026.349.156.629.388.841s.518.317.856.317c.487 0 .83-.204 1.031-.611h.976c-.133.402-.373.733-.722.992-.344.253-.772.38-1.285.38-.417 0-.792-.092-1.125-.277-.328-.191-.587-.455-.777-.793-.186-.344-.278-.74-.278-1.19s.09-.843.27-1.181c.185-.344.441-.608.769-.793s.713-.277 1.141-.277c.413 0 .78.089 1.103.269a1.91 1.91 0 0 1 .753.761c.18.323.269.695.269 1.118zm-.943-.285c-.005-.333-.124-.6-.357-.801s-.521-.301-.864-.301a1.15 1.15 0 0 0-.801.301c-.222.196-.354.463-.396.801h2.418zm3.419 2.648a2.28 2.28 0 0 1-.928-.182c-.269-.127-.484-.296-.642-.508a1.28 1.28 0 0 1-.254-.721h.936c.016.185.103.341.261.468.164.121.368.182.611.182.254 0 .449-.048.587-.143a.45.45 0 0 0 .214-.38c0-.164-.079-.286-.238-.365-.153-.079-.399-.167-.737-.262l-.801-.261c-.206-.085-.386-.214-.539-.389s-.223-.404-.223-.69c0-.232.069-.444.207-.634a1.36 1.36 0 0 1 .586-.46c.259-.111.555-.166.888-.166.497 0 .896.126 1.198.38s.47.59.491 1.023h-.904a.64.64 0 0 0-.237-.468c-.143-.116-.336-.174-.579-.174s-.42.045-.547.135-.191.208-.191.356a.39.39 0 0 0 .127.294c.085.079.188.142.309.19l.54.167a5.21 5.21 0 0 1 .777.261c.206.085.383.212.531.381s.225.394.23.674c0 .248-.069.47-.206.666a1.37 1.37 0 0 1-.587.46c-.248.111-.542.166-.88.166z"/><path d="M22.767 22.149a2.14 2.14 0 0 1-.27 1.05c-.173.327-.45.59-.83.79-.373.2-.847.3-1.42.3h-1.17v2.68h-1.4v-6.98h2.57c.54 0 1 .093 1.38.28s.663.443.85.77c.193.327.29.697.29 1.11zm-2.58 1.01c.387 0 .673-.087.86-.26.187-.18.28-.43.28-.75 0-.68-.38-1.02-1.14-1.02h-1.11v2.03h1.11zm5.074-.87a1.98 1.98 0 0 1 .7-.69c.293-.167.627-.25 1-.25v1.47h-.37c-.44 0-.773.103-1 .31-.22.207-.33.567-.33 1.08v2.76h-1.4v-5.54h1.4v.86zm5.203 4.77c-.533 0-1.013-.117-1.44-.35-.427-.24-.763-.577-1.01-1.01-.24-.433-.36-.933-.36-1.5s.123-1.067.37-1.5c.253-.433.597-.767 1.03-1 .433-.24.917-.36 1.45-.36s1.017.12 1.45.36a2.54 2.54 0 0 1 1.02 1c.253.433.38.933.38 1.5s-.13 1.067-.39 1.5a2.66 2.66 0 0 1-1.04 1.01 3.03 3.03 0 0 1-1.46.35zm0-1.22a1.46 1.46 0 0 0 .71-.18 1.37 1.37 0 0 0 .54-.56c.133-.247.2-.547.2-.9 0-.527-.14-.93-.42-1.21a1.34 1.34 0 0 0-1.01-.43 1.34 1.34 0 0 0-1.01.43c-.267.28-.4.683-.4 1.21s.13.933.39 1.22c.267.28.6.42 1 .42zm6.187-4.5c.413 0 .777.083 1.09.25.313.16.56.37.74.63v-.79h1.41v5.58c0 .513-.103.97-.31 1.37-.207.407-.517.727-.93.96-.413.24-.913.36-1.5.36-.787 0-1.433-.183-1.94-.55-.5-.367-.783-.867-.85-1.5h1.39a1.02 1.02 0 0 0 .47.6c.247.153.543.23.89.23.407 0 .737-.123.99-.37.253-.24.38-.607.38-1.1v-.86c-.18.26-.43.477-.75.65-.313.173-.673.26-1.08.26a2.38 2.38 0 0 1-1.28-.36 2.55 2.55 0 0 1-.92-1.01c-.22-.44-.33-.943-.33-1.51 0-.56.11-1.057.33-1.49.227-.433.53-.767.91-1a2.45 2.45 0 0 1 1.29-.35zm1.83 2.86c0-.34-.067-.63-.2-.87-.133-.247-.313-.433-.54-.56-.227-.133-.47-.2-.73-.2s-.5.063-.72.19-.4.313-.54.56c-.133.24-.2.527-.2.86s.067.627.2.88c.14.247.32.437.54.57a1.4 1.4 0 0 0 .72.2 1.47 1.47 0 0 0 .73-.19c.227-.133.407-.32.54-.56.133-.247.2-.54.2-.88zm4.277-1.91a1.98 1.98 0 0 1 .7-.69c.293-.167.627-.25 1-.25v1.47h-.37c-.44 0-.773.103-1 .31-.22.207-.33.567-.33 1.08v2.76h-1.4v-5.54h1.4v.86zm7.893 1.79a3.3 3.3 0 0 1-.04.54h-4.05c.033.4.173.713.42.94s.55.34.91.34a1.14 1.14 0 0 0 1.11-.67h1.51a2.55 2.55 0 0 1-.92 1.32c-.453.34-1.01.51-1.67.51-.533 0-1.013-.117-1.44-.35-.42-.24-.75-.577-.99-1.01-.233-.433-.35-.933-.35-1.5 0-.573.117-1.077.35-1.51s.56-.767.98-1 .903-.35 1.45-.35c.527 0 .997.113 1.41.34.42.227.743.55.97.97.233.413.35.89.35 1.43zm-1.45-.4c-.007-.36-.137-.647-.39-.86-.253-.22-.563-.33-.93-.33-.347 0-.64.107-.88.32-.233.207-.377.497-.43.87h2.63zm4.692 3.38c-.453 0-.86-.08-1.22-.24-.36-.167-.647-.39-.86-.67-.207-.28-.32-.59-.34-.93h1.41c.027.213.13.39.31.53.187.14.417.21.69.21.267 0 .473-.053.62-.16.153-.107.23-.243.23-.41 0-.18-.093-.313-.28-.4-.18-.093-.47-.193-.87-.3-.413-.1-.753-.203-1.02-.31-.26-.107-.487-.27-.68-.49-.187-.22-.28-.517-.28-.89 0-.307.087-.587.26-.84a1.82 1.82 0 0 1 .76-.6c.333-.147.723-.22 1.17-.22.66 0 1.187.167 1.58.5.393.327.61.77.65 1.33h-1.34c-.02-.22-.113-.393-.28-.52-.16-.133-.377-.2-.65-.2-.253 0-.45.047-.59.14a.45.45 0 0 0-.2.39c0 .187.093.33.28.43.187.093.477.19.87.29a7.38 7.38 0 0 1 .99.31 1.69 1.69 0 0 1 .67.5c.193.22.293.513.3.88a1.45 1.45 0 0 1-.27.86 1.74 1.74 0 0 1-.76.6c-.327.14-.71.21-1.15.21zm5.549 0c-.453 0-.86-.08-1.22-.24-.36-.167-.647-.39-.86-.67-.207-.28-.32-.59-.34-.93h1.41c.027.213.13.39.31.53.187.14.417.21.69.21.267 0 .473-.053.62-.16.153-.107.23-.243.23-.41 0-.18-.093-.313-.28-.4-.18-.093-.47-.193-.87-.3-.413-.1-.753-.203-1.02-.31-.26-.107-.487-.27-.68-.49-.187-.22-.28-.517-.28-.89 0-.307.087-.587.26-.84.18-.253.433-.453.76-.6.333-.147.723-.22 1.17-.22.66 0 1.187.167 1.58.5.393.327.61.77.65 1.33h-1.34c-.02-.22-.113-.393-.28-.52-.16-.133-.377-.2-.65-.2-.253 0-.45.047-.59.14a.45.45 0 0 0-.2.39c0 .187.093.33.28.43.187.093.477.19.87.29a7.38 7.38 0 0 1 .99.31 1.69 1.69 0 0 1 .67.5c.193.22.293.513.3.88a1.45 1.45 0 0 1-.27.86c-.173.253-.427.453-.76.6-.327.14-.71.21-1.15.21zm7.542-4.48v2.68c0 .187.043.323.13.41.093.08.247.12.46.12h.65v1.18h-.88c-1.18 0-1.77-.573-1.77-1.72v-2.67h-.66v-1.15h.66v-1.37h1.41v1.37h1.24v1.15h-1.24zm4.807 4.48c-.533 0-1.013-.117-1.44-.35-.427-.24-.763-.577-1.01-1.01-.24-.433-.36-.933-.36-1.5s.123-1.067.37-1.5c.253-.433.597-.767 1.03-1 .433-.24.917-.36 1.45-.36s1.017.12 1.45.36a2.54 2.54 0 0 1 1.02 1c.253.433.38.933.38 1.5s-.13 1.067-.39 1.5c-.253.433-.6.77-1.04 1.01a3.03 3.03 0 0 1-1.46.35zm0-1.22a1.46 1.46 0 0 0 .71-.18c.227-.127.407-.313.54-.56s.2-.547.2-.9c0-.527-.14-.93-.42-1.21a1.34 1.34 0 0 0-1.01-.43 1.34 1.34 0 0 0-1.01.43c-.267.28-.4.683-.4 1.21s.13.933.39 1.22c.267.28.6.42 1 .42zm12.47 1.13h-1.4l-3.17-4.79v4.79h-1.4v-6.99h1.4l3.17 4.8v-4.8h1.4v6.99zm6.633-2.89a3.3 3.3 0 0 1-.04.54h-4.05c.033.4.173.713.42.94s.55.34.91.34a1.14 1.14 0 0 0 1.11-.67h1.51a2.55 2.55 0 0 1-.92 1.32c-.453.34-1.01.51-1.67.51-.533 0-1.013-.117-1.44-.35-.42-.24-.75-.577-.99-1.01-.233-.433-.35-.933-.35-1.5 0-.573.117-1.077.35-1.51a2.44 2.44 0 0 1 .98-1c.42-.233.903-.35 1.45-.35.527 0 .997.113 1.41.34.42.227.743.55.97.97.233.413.35.89.35 1.43zm-1.45-.4c-.007-.36-.137-.647-.39-.86-.253-.22-.563-.33-.93-.33-.347 0-.64.107-.88.32-.233.207-.377.497-.43.87h2.63zm4.202-1.1v2.68c0 .187.043.323.13.41.093.08.247.12.46.12h.65v1.18h-.88c-1.18 0-1.77-.573-1.77-1.72v-2.67h-.66v-1.15h.66v-1.37h1.41v1.37h1.24v1.15h-1.24zm6.26 3.21h3.14v1.18h-4.76v-1.08l3.12-4.72h-3.12v-1.18h4.76v1.08l-3.14 4.72zm9.582-1.71a3.38 3.38 0 0 1-.04.54h-4.05c.033.4.173.713.42.94s.55.34.91.34a1.14 1.14 0 0 0 1.11-.67h1.51a2.55 2.55 0 0 1-.92 1.32c-.454.34-1.01.51-1.67.51-.534 0-1.014-.117-1.44-.35-.42-.24-.75-.577-.99-1.01-.234-.433-.35-.933-.35-1.5 0-.573.116-1.077.35-1.51a2.44 2.44 0 0 1 .98-1c.42-.233.903-.35 1.45-.35.526 0 .996.113 1.41.34.42.227.743.55.97.97.233.413.35.89.35 1.43zm-1.45-.4c-.007-.36-.137-.647-.39-.86a1.37 1.37 0 0 0-.93-.33c-.347 0-.64.107-.88.32-.234.207-.377.497-.43.87h2.63zm3.972-1.39a1.98 1.98 0 0 1 .7-.69c.293-.167.626-.25 1-.25v1.47h-.37c-.44 0-.774.103-1 .31-.22.207-.33.567-.33 1.08v2.76h-1.4v-5.54h1.4v.86zm5.203 4.77c-.534 0-1.014-.117-1.44-.35a2.62 2.62 0 0 1-1.01-1.01c-.24-.433-.36-.933-.36-1.5s.123-1.067.37-1.5a2.6 2.6 0 0 1 1.03-1c.433-.24.916-.36 1.45-.36s1.016.12 1.45.36a2.54 2.54 0 0 1 1.02 1c.253.433.38.933.38 1.5s-.13 1.067-.39 1.5a2.66 2.66 0 0 1-1.04 1.01c-.434.233-.92.35-1.46.35zm0-1.22a1.46 1.46 0 0 0 .71-.18c.226-.127.406-.313.54-.56s.2-.547.2-.9c0-.527-.14-.93-.42-1.21a1.34 1.34 0 0 0-1.01-.43 1.34 1.34 0 0 0-1.01.43c-.267.28-.4.683-.4 1.21s.13.933.39 1.22c.266.28.6.42 1 .42z"/></g><path stroke="#e2e2ea" stroke-width=".566" d="M0 206.738h171"/><path d="M66.868 220.147c-.143-.275-.341-.481-.595-.619s-.547-.214-.88-.214c-.365 0-.69.082-.975.246s-.51.396-.674.698c-.159.301-.238.65-.238 1.046s.079.748.238 1.055c.164.301.388.534.674.698s.611.246.975.246c.492 0 .891-.138 1.197-.413s.494-.647.563-1.118h-2.069v-.721h3.037v.705a2.69 2.69 0 0 1-.46 1.182 2.71 2.71 0 0 1-.959.864 2.7 2.7 0 0 1-1.308.317 2.87 2.87 0 0 1-1.419-.357 2.74 2.74 0 0 1-1.023-1.007c-.248-.428-.373-.911-.373-1.451a2.84 2.84 0 0 1 .373-1.451 2.69 2.69 0 0 1 1.023-.999c.433-.243.907-.364 1.419-.364.587 0 1.107.145 1.562.436.46.285.793.692.999 1.221h-1.086zm4.039 3.996c-.412 0-.785-.092-1.118-.278s-.595-.454-.785-.792c-.19-.344-.285-.74-.285-1.19 0-.444.098-.838.293-1.181s.463-.608.801-.793.716-.278 1.134-.278.795.093 1.134.278.605.449.801.793.293.737.293 1.181a2.3 2.3 0 0 1-.301 1.182c-.201.343-.476.61-.825.8-.344.186-.724.278-1.142.278zm0-.785a1.32 1.32 0 0 0 .65-.166 1.26 1.26 0 0 0 .5-.5c.127-.222.19-.492.19-.809s-.061-.584-.182-.801-.283-.388-.484-.499-.418-.167-.65-.167-.449.056-.65.167a1.19 1.19 0 0 0-.468.499c-.116.217-.174.484-.174.801 0 .471.119.835.357 1.094a1.21 1.21 0 0 0 .912.381zm6.276-2.918v2.419c0 .163.037.282.111.356.079.069.211.103.396.103h.555v.754h-.714c-.407 0-.719-.095-.936-.286s-.325-.499-.325-.927v-2.419h-.515v-.737h.515v-1.087h.912v1.087h1.063v.737h-1.062zm3.791 3.703c-.412 0-.785-.092-1.118-.278s-.595-.454-.785-.792c-.19-.344-.285-.74-.285-1.19 0-.444.098-.838.293-1.181s.463-.608.801-.793.716-.278 1.134-.278.796.093 1.134.278.605.449.801.793.293.737.293 1.181a2.3 2.3 0 0 1-.301 1.182c-.201.343-.476.61-.825.8-.344.186-.724.278-1.142.278zm0-.785a1.32 1.32 0 0 0 .65-.166 1.26 1.26 0 0 0 .499-.5c.127-.222.19-.492.19-.809s-.061-.584-.182-.801-.283-.388-.484-.499-.418-.167-.65-.167-.449.056-.65.167a1.19 1.19 0 0 0-.468.499c-.116.217-.174.484-.174.801 0 .471.119.835.357 1.094a1.21 1.21 0 0 0 .912.381zm7.116.785c-.412 0-.785-.092-1.118-.278s-.595-.454-.785-.792c-.19-.344-.285-.74-.285-1.19 0-.444.098-.838.293-1.181s.463-.608.801-.793.716-.278 1.134-.278.796.093 1.134.278.605.449.801.793.293.737.293 1.181a2.3 2.3 0 0 1-.301 1.182c-.201.343-.476.61-.825.8-.344.186-.724.278-1.142.278zm0-.785a1.32 1.32 0 0 0 .65-.166c.206-.111.373-.278.5-.5s.19-.492.19-.809-.061-.584-.182-.801-.283-.388-.484-.499-.418-.167-.65-.167-.449.056-.65.167a1.19 1.19 0 0 0-.468.499c-.116.217-.174.484-.174.801 0 .471.119.835.357 1.094a1.21 1.21 0 0 0 .912.381zm4.993-2.918h-.809v3.632h-.912v-3.632h-.515v-.737h.515v-.309c0-.503.132-.867.396-1.095.27-.232.69-.349 1.261-.349v.754c-.275 0-.468.053-.579.158s-.166.278-.166.532v.309h.809v.737zm2.633 0h-.809v3.632h-.912v-3.632h-.515v-.737h.515v-.309c0-.503.132-.867.396-1.095.27-.232.69-.349 1.261-.349v.754c-.275 0-.468.053-.579.158s-.166.278-.166.532v.309h.809v.737zm2.387 3.703a2.28 2.28 0 0 1-.928-.182c-.27-.127-.484-.296-.642-.508-.159-.217-.243-.457-.254-.721h.936a.65.65 0 0 0 .262.467c.164.122.367.183.611.183.254 0 .449-.048.587-.143.143-.1.214-.227.214-.38 0-.164-.079-.286-.238-.365-.153-.08-.399-.167-.737-.262l-.801-.262c-.206-.084-.386-.214-.539-.388-.148-.175-.222-.404-.222-.69 0-.232.069-.444.206-.634a1.36 1.36 0 0 1 .587-.46c.259-.111.555-.167.888-.167.497 0 .896.127 1.197.381.306.248.47.589.492 1.023h-.904c-.016-.196-.095-.352-.238-.468s-.336-.174-.579-.174c-.238 0-.42.045-.547.134s-.19.209-.19.357a.39.39 0 0 0 .127.294c.085.079.188.142.309.19l.539.166c.317.085.576.172.777.262.206.085.383.211.531.381s.225.393.23.674a1.13 1.13 0 0 1-.206.666c-.137.195-.333.348-.587.46-.248.111-.542.166-.88.166zm6.654-2.363a2.84 2.84 0 0 1-.032.444h-3.338c.026.349.156.629.388.841a1.23 1.23 0 0 0 .857.317c.486 0 .83-.204 1.03-.611h.976a1.98 1.98 0 0 1-.722.991c-.343.254-.772.381-1.284.381-.418 0-.793-.092-1.126-.278-.328-.19-.587-.454-.777-.792-.185-.344-.278-.74-.278-1.19s.09-.843.27-1.181c.185-.344.441-.608.769-.793a2.31 2.31 0 0 1 1.142-.278c.412 0 .779.09 1.102.27a1.9 1.9 0 0 1 .753.761c.18.323.27.695.27 1.118zm-.944-.285c-.005-.333-.124-.6-.357-.801s-.52-.301-.864-.301a1.15 1.15 0 0 0-.801.301c-.222.195-.354.462-.396.801h2.418zm2.888-1.055v2.419c0 .163.037.282.111.356.079.069.211.103.396.103h.555v.754h-.713c-.407 0-.719-.095-.936-.286s-.325-.499-.325-.927v-2.419h-.515v-.737h.515v-1.087h.912v1.087h1.062v.737H106.7z" fill="#31caca"/><g fill="#f4f6f8"><ellipse cx="85.5" cy="96.158" rx="55.49" ry="55.432"/><path d="M130.666 96.158a45.09 45.09 0 0 0-9.653-27.879c-6.254-7.95-15-13.571-24.835-15.961l-7.721 31.696c2.724.662 5.147 2.219 6.879 4.421a12.49 12.49 0 0 1 2.674 7.722h32.655z"/></g><path d="M85.5 140.144a1.11 1.11 0 0 1-1.133 1.118 45.19 45.19 0 0 1-26.224-9.203 45.12 45.12 0 0 1-16.179-23.887c-2.632-9.516-2.066-19.631 1.609-28.796a45.13 45.13 0 0 1 18.74-21.939c8.481-5.068 18.392-7.217 28.214-6.118a45.19 45.19 0 0 1 26.16 12.202 45.1 45.1 0 0 1 13.416 25.537 45.07 45.07 0 0 1-4.285 27.434 1.11 1.11 0 0 1-1.52.469l-26.776-14.358c-.552-.296-.754-.981-.509-1.557.917-2.154 1.212-4.53.841-6.856-.431-2.701-1.736-5.186-3.716-7.074s-4.526-3.076-7.246-3.38a12.52 12.52 0 0 0-7.815 1.695 12.5 12.5 0 0 0-5.191 6.077c-1.018 2.538-1.175 5.34-.446 7.976s2.303 4.96 4.481 6.616c1.877 1.427 4.113 2.291 6.446 2.502.623.057 1.131.558 1.131 1.184v30.356z" fill="#ff974a"/><path d="M130.666 96.158a45.09 45.09 0 0 1-9.227 27.328c-5.986 7.855-14.386 13.533-23.912 16.162a45.21 45.21 0 0 1-28.826-1.608 45.15 45.15 0 0 1-21.962-18.721 45.08 45.08 0 0 1-6.125-28.184 45.1 45.1 0 0 1 12.215-26.132 45.18 45.18 0 0 1 25.564-13.403c9.76-1.553 19.76.134 28.468 4.803L91.417 85.146a12.52 12.52 0 0 0-7.885-1.33c-2.703.43-5.191 1.734-7.081 3.712a12.49 12.49 0 0 0-3.383 7.238c-.305 2.718.291 5.461 1.697 7.807s3.542 4.169 6.083 5.186 5.346 1.173 7.985.445a12.51 12.51 0 0 0 6.623-4.477 12.49 12.49 0 0 0 2.556-7.569h32.655z" fill="#3dd598"/><path d="M108.462 79.874h-3.12v1.646c.135-.167.328-.302.578-.404a1.98 1.98 0 0 1 .799-.164c.514 0 .934.112 1.262.337a1.95 1.95 0 0 1 .712.867c.148.347.221.719.221 1.117 0 .738-.211 1.332-.635 1.781-.417.449-1.014.674-1.791.674-.732 0-1.316-.183-1.752-.549s-.684-.844-.741-1.435h1.309c.058.257.186.462.385.616.205.154.465.231.78.231.379 0 .664-.119.857-.356s.289-.552.289-.944c0-.398-.1-.7-.299-.905-.192-.212-.478-.318-.857-.318-.269 0-.494.067-.674.202s-.308.315-.385.539h-1.29V78.69h4.352v1.184zm3.038 3.88c.052.282.167.501.347.655.186.148.433.222.741.222.398 0 .687-.164.867-.491.179-.334.269-.892.269-1.675-.147.205-.356.366-.626.481-.263.116-.548.173-.856.173a2.46 2.46 0 0 1-1.117-.25c-.328-.173-.588-.427-.78-.761-.193-.34-.289-.751-.289-1.232 0-.713.212-1.277.635-1.695.424-.424 1.002-.635 1.733-.635.912 0 1.554.292 1.926.876.379.584.568 1.463.568 2.638 0 .834-.074 1.518-.221 2.051-.141.533-.389.937-.742 1.213-.346.276-.821.414-1.425.414-.475 0-.879-.09-1.213-.27a2.04 2.04 0 0 1-.77-.722c-.173-.302-.273-.632-.298-.992h1.251zm1.021-1.733c.334 0 .597-.103.789-.308s.289-.481.289-.828c0-.379-.103-.671-.308-.876-.199-.212-.472-.318-.818-.318s-.623.109-.828.327c-.199.212-.299.494-.299.847 0 .34.096.619.289.838.199.212.494.318.886.318zm7.464-.52v2.58c0 .18.042.311.125.395.09.077.238.116.443.116h.626v1.136h-.847c-1.136 0-1.705-.552-1.705-1.656v-2.571h-.635v-1.107h.635v-1.319h1.358v1.319h1.194v1.107h-1.194zm-41.271 39.518h-3.12v1.647c.135-.167.327-.302.578-.405a1.98 1.98 0 0 1 .799-.163c.514 0 .934.112 1.261.337a1.94 1.94 0 0 1 .712.866c.148.347.221.719.221 1.117 0 .738-.212 1.332-.635 1.781-.417.45-1.014.674-1.791.674-.732 0-1.316-.183-1.752-.549s-.684-.844-.741-1.434h1.309a1.04 1.04 0 0 0 .385.616c.205.154.465.231.78.231.379 0 .664-.119.857-.356s.289-.552.289-.944c0-.398-.099-.699-.298-.905-.193-.211-.478-.317-.857-.317a1.09 1.09 0 0 0-.674.202 1.1 1.1 0 0 0-.385.539h-1.29v-4.121h4.352v1.184zm2.653 2.138c-.642-.334-.963-.851-.963-1.55a1.77 1.77 0 0 1 .26-.944c.18-.289.446-.517.799-.683.359-.174.796-.26 1.309-.26s.947.086 1.3.26c.36.166.626.394.799.683a1.72 1.72 0 0 1 .27.944 1.69 1.69 0 0 1-.26.934 1.79 1.79 0 0 1-.693.616c.353.154.629.379.828.674s.298.645.298 1.049c0 .437-.112.819-.337 1.146a2.11 2.11 0 0 1-.905.741c-.385.174-.818.26-1.3.26s-.915-.086-1.3-.26a2.19 2.19 0 0 1-.905-.741c-.218-.327-.327-.709-.327-1.146 0-.404.1-.754.299-1.049.199-.302.475-.527.828-.674zm2.465-1.358c0-.314-.096-.558-.289-.731-.186-.174-.443-.26-.77-.26-.321 0-.578.086-.77.26-.186.173-.279.42-.279.741 0 .289.096.52.289.693.199.173.453.26.761.26s.562-.087.761-.26c.199-.18.299-.414.299-.703zm-1.059 1.945c-.366 0-.664.093-.895.279-.225.187-.337.453-.337.799 0 .321.109.585.327.79.225.199.526.298.905.298s.677-.102.895-.308.327-.465.327-.78c0-.34-.112-.603-.337-.789-.225-.193-.52-.289-.886-.289zm3.626-2.041c.032-.642.257-1.136.674-1.483.424-.353.979-.529 1.666-.529.469 0 .87.083 1.203.25.334.16.584.382.751.664a1.74 1.74 0 0 1 .26.944c0 .404-.106.748-.318 1.03-.205.276-.453.462-.741.559v.038c.372.116.661.321.866.616.212.296.318.674.318 1.136 0 .386-.09.729-.27 1.031-.173.301-.433.539-.78.712-.34.167-.751.25-1.232.25-.725 0-1.316-.183-1.772-.548s-.697-.905-.722-1.618h1.309c.013.315.119.568.318.761.205.186.485.279.838.279.327 0 .578-.09.751-.27a.98.98 0 0 0 .27-.712c0-.385-.122-.661-.366-.828s-.623-.25-1.136-.25h-.279v-1.108h.279c.911 0 1.367-.305 1.367-.914 0-.276-.084-.491-.25-.645-.16-.155-.395-.232-.703-.232-.302 0-.536.084-.703.251a.98.98 0 0 0-.279.616h-1.319zm9.762.944v2.58c0 .18.042.311.125.395.09.077.238.115.443.115h.626v1.136h-.847c-1.136 0-1.704-.552-1.704-1.656v-2.57h-.635v-1.108h.635v-1.319h1.358v1.319h1.194v1.108h-1.194z" fill="#fff"/></svg>