<svg width="56" height="57" viewBox="0 0 56 57" fill="none" xmlns="http://www.w3.org/2000/svg">
<path fill-rule="evenodd" clip-rule="evenodd" d="M52.6006 17.1938L50.8384 14.1818C49.3477 11.6331 46.044 10.7539 43.4531 12.2163V12.2163C42.2198 12.9319 40.7482 13.135 39.3627 12.7806C37.9773 12.4263 36.7918 11.5436 36.0678 10.3274C35.602 9.55427 35.3517 8.67373 35.3422 7.77478V7.77478C35.3842 6.33353 34.8322 4.93689 33.8119 3.90303C32.7917 2.86916 31.39 2.28612 29.9263 2.28671H26.3761C24.9421 2.2867 23.5672 2.84958 22.5556 3.85081C21.5441 4.85204 20.9792 6.20907 20.9861 7.62162V7.62162C20.9436 10.5381 18.5312 12.8803 15.5702 12.88C14.6576 12.8706 13.7637 12.6241 12.9789 12.1652V12.1652C10.388 10.7028 7.08429 11.5821 5.59354 14.1307L3.70185 17.1938C2.2129 19.7393 3.09333 22.9915 5.67128 24.4687V24.4687C7.34698 25.4217 8.37926 27.1829 8.37926 29.0889C8.37926 30.9949 7.34698 32.7561 5.67128 33.7091V33.7091C3.0966 35.1763 2.21522 38.4206 3.70185 40.9584V40.9584L5.48988 43.996C6.18836 45.2375 7.36029 46.1536 8.74634 46.5416C10.1324 46.9297 11.6183 46.7576 12.8752 46.0636V46.0636C14.1109 45.3534 15.5833 45.1588 16.9653 45.5231C18.3473 45.8874 19.5243 46.7804 20.2346 48.0036C20.7004 48.7767 20.9507 49.6572 20.9602 50.5562V50.5562C20.9602 53.5025 23.385 55.8911 26.3761 55.8911H29.9263C32.9073 55.8911 35.3279 53.5181 35.3422 50.5817V50.5817C35.3353 49.1647 35.9036 47.8038 36.9208 46.8018C37.938 45.7998 39.3196 45.2399 40.7581 45.2468C41.6685 45.2708 42.5588 45.5163 43.3494 45.9615V45.9615C45.9336 47.4282 49.2352 46.5609 50.7348 44.0215V44.0215L52.6006 40.9584C53.3227 39.7374 53.521 38.2831 53.1513 36.9177C52.7817 35.5522 51.8747 34.3882 50.6311 33.6835V33.6835C49.3876 32.9788 48.4806 31.8149 48.1109 30.4494C47.7413 29.084 47.9395 27.6297 48.6617 26.4087C49.1313 25.601 49.8112 24.9313 50.6311 24.4687V24.4687C53.1936 22.9923 54.072 19.7591 52.6006 17.2194V17.2194V17.1938Z" stroke="#3B4555" stroke-width="2" stroke-linecap="round" stroke-linejoin="round"/>
<ellipse cx="28.1556" cy="29.0889" rx="7.30968" ry="7.30968" stroke="#3DD598" stroke-width="2" stroke-linecap="round" stroke-linejoin="round"/>
</svg>
