<svg width="56" height="56" viewBox="0 0 56 56" fill="none" xmlns="http://www.w3.org/2000/svg">
<path d="M28.0002 28V3.99585" stroke="#3B4555" stroke-width="2" stroke-linecap="round" stroke-linejoin="round"/>
<path d="M48.7884 15.9979L7.21204 40.002" stroke="#3B4555" stroke-width="2" stroke-linecap="round" stroke-linejoin="round"/>
<path d="M4.39643 32.3884C3.35714 26.764 4.35708 20.9532 7.21668 15.9998C10.0763 11.0463 14.6082 7.27452 19.9986 5.36188L21.5 24L4.39643 32.3884Z" stroke="#3DD598" stroke-width="2" stroke-linecap="round" stroke-linejoin="round"/>
<path d="M28.0003 3.99585C32.2059 3.99663 36.3374 5.10231 39.9812 7.20216C43.625 9.30202 46.6532 12.3224 48.7625 15.9607C50.8718 19.5991 51.9882 23.7277 51.9999 27.9333C52.0116 32.1388 50.9181 36.2736 48.8291 39.9237C46.74 43.5737 43.7287 46.6108 40.0966 48.7309C36.4645 50.8509 32.3391 51.9795 28.1337 52.0037C23.9282 52.0278 19.7901 50.9467 16.1339 48.8684C12.4777 46.7902 9.43172 43.7879 7.3009 40.1621" stroke="#3B4555" stroke-width="2" stroke-linecap="round" stroke-linejoin="round"/>
</svg>
